<svg width="85" height="54" viewBox="0 0 85 54" fill="none" xmlns="http://www.w3.org/2000/svg">
<path d="M1.86 50.4101C1.72 50.4101 1.6 50.3651 1.5 50.2751C1.41 50.1851 1.365 50.0751 1.365 49.9451V40.3001C1.365 40.1701 1.41 40.0601 1.5 39.9701C1.6 39.8801 1.72 39.8351 1.86 39.8351H4.77C6.44 39.8351 7.73 40.2901 8.64 41.2001C9.56 42.1101 10.02 43.4151 10.02 45.1151C10.02 46.8151 9.56 48.1251 8.64 49.0451C7.73 49.9551 6.44 50.4101 4.77 50.4101H1.86ZM4.725 49.6001C7.605 49.6001 9.045 48.1051 9.045 45.1151C9.045 42.1351 7.605 40.6451 4.725 40.6451H2.295V49.6001H4.725ZM16.2517 42.9551C17.1317 42.9551 17.7867 43.1851 18.2167 43.6451C18.6567 44.1051 18.8767 44.8001 18.8767 45.7301V50.0051C18.8767 50.1451 18.8367 50.2601 18.7567 50.3501C18.6767 50.4301 18.5667 50.4701 18.4267 50.4701C18.2867 50.4701 18.1767 50.4301 18.0967 50.3501C18.0167 50.2601 17.9767 50.1451 17.9767 50.0051V49.1051C17.7667 49.5551 17.4617 49.9051 17.0617 50.1551C16.6617 50.3951 16.2017 50.5151 15.6817 50.5151C15.2117 50.5151 14.7817 50.4201 14.3917 50.2301C14.0117 50.0401 13.7067 49.7801 13.4767 49.4501C13.2467 49.1201 13.1317 48.7501 13.1317 48.3401C13.1217 47.7901 13.2567 47.3651 13.5367 47.0651C13.8167 46.7551 14.2817 46.5351 14.9317 46.4051C15.5817 46.2751 16.4917 46.2101 17.6617 46.2101H17.9767V45.6551C17.9767 44.9951 17.8417 44.5151 17.5717 44.2151C17.3017 43.9051 16.8767 43.7501 16.2967 43.7501C15.5567 43.7501 14.8517 43.9451 14.1817 44.3351C14.1517 44.3551 14.0717 44.4101 13.9417 44.5001C13.8217 44.5801 13.7167 44.6201 13.6267 44.6201C13.5267 44.6201 13.4417 44.5851 13.3717 44.5151C13.3117 44.4351 13.2817 44.3401 13.2817 44.2301C13.2817 44.0101 13.4567 43.7951 13.8067 43.5851C14.1567 43.3851 14.5467 43.2301 14.9767 43.1201C15.4067 43.0101 15.8317 42.9551 16.2517 42.9551ZM15.7567 49.7201C16.4067 49.7201 16.9367 49.5001 17.3467 49.0601C17.7667 48.6201 17.9767 48.0601 17.9767 47.3801V46.8851H17.6917C16.7317 46.8851 15.9967 46.9251 15.4867 47.0051C14.9767 47.0851 14.6167 47.2251 14.4067 47.4251C14.1967 47.6151 14.0917 47.8951 14.0917 48.2651C14.0917 48.6851 14.2517 49.0351 14.5717 49.3151C14.8917 49.5851 15.2867 49.7201 15.7567 49.7201ZM24.8222 50.5151C24.4022 50.5151 23.9872 50.4601 23.5772 50.3501C23.1772 50.2301 22.8222 50.0701 22.5122 49.8701C22.3222 49.7401 22.1872 49.6301 22.1072 49.5401C22.0372 49.4401 22.0022 49.3301 22.0022 49.2101C22.0022 49.1101 22.0322 49.0251 22.0922 48.9551C22.1622 48.8851 22.2422 48.8501 22.3322 48.8501C22.4222 48.8501 22.5772 48.9251 22.7972 49.0751C23.0872 49.2651 23.3822 49.4201 23.6822 49.5401C23.9922 49.6601 24.3772 49.7201 24.8372 49.7201C25.4272 49.7201 25.8872 49.6151 26.2172 49.4051C26.5472 49.1851 26.7122 48.8751 26.7122 48.4751C26.7122 48.2351 26.6522 48.0401 26.5322 47.8901C26.4122 47.7301 26.2122 47.5951 25.9322 47.4851C25.6522 47.3651 25.2522 47.2501 24.7322 47.1401C23.8422 46.9401 23.2072 46.6851 22.8272 46.3751C22.4572 46.0551 22.2722 45.6301 22.2722 45.1001C22.2722 44.4601 22.5222 43.9451 23.0222 43.5551C23.5222 43.1551 24.1722 42.9551 24.9722 42.9551C25.3622 42.9551 25.7322 43.0051 26.0822 43.1051C26.4422 43.2051 26.7522 43.3501 27.0122 43.5401C27.3622 43.7801 27.5372 44.0151 27.5372 44.2451C27.5372 44.3451 27.5022 44.4351 27.4322 44.5151C27.3722 44.5851 27.2972 44.6201 27.2072 44.6201C27.1072 44.6201 26.9522 44.5401 26.7422 44.3801C26.4722 44.1901 26.2022 44.0401 25.9322 43.9301C25.6722 43.8101 25.3372 43.7501 24.9272 43.7501C24.4072 43.7501 23.9922 43.8701 23.6822 44.1101C23.3722 44.3401 23.2172 44.6551 23.2172 45.0551C23.2172 45.2851 23.2672 45.4751 23.3672 45.6251C23.4772 45.7751 23.6572 45.9101 23.9072 46.0301C24.1672 46.1401 24.5372 46.2501 25.0172 46.3601C25.7072 46.5201 26.2372 46.6901 26.6072 46.8701C26.9772 47.0501 27.2422 47.2651 27.4022 47.5151C27.5622 47.7651 27.6422 48.0851 27.6422 48.4751C27.6422 49.0851 27.3822 49.5801 26.8622 49.9601C26.3522 50.3301 25.6722 50.5151 24.8222 50.5151ZM34.2353 42.9551C35.9853 42.9551 36.8603 43.8951 36.8603 45.7751V50.0201C36.8603 50.1601 36.8203 50.2751 36.7403 50.3651C36.6603 50.4451 36.5503 50.4851 36.4103 50.4851C36.2703 50.4851 36.1553 50.4451 36.0653 50.3651C35.9853 50.2751 35.9453 50.1601 35.9453 50.0201V45.8351C35.9453 45.1151 35.8003 44.5901 35.5103 44.2601C35.2203 43.9301 34.7603 43.7651 34.1303 43.7651C33.4103 43.7651 32.8303 43.9851 32.3903 44.4251C31.9603 44.8651 31.7453 45.4551 31.7453 46.1951V50.0201C31.7453 50.1601 31.7053 50.2751 31.6253 50.3651C31.5453 50.4451 31.4353 50.4851 31.2953 50.4851C31.1553 50.4851 31.0403 50.4451 30.9503 50.3651C30.8703 50.2751 30.8303 50.1601 30.8303 50.0201V40.2251C30.8303 40.0851 30.8703 39.9751 30.9503 39.8951C31.0403 39.8051 31.1553 39.7601 31.2953 39.7601C31.4353 39.7601 31.5453 39.8051 31.6253 39.8951C31.7053 39.9751 31.7453 40.0851 31.7453 40.2251V44.3501C31.9753 43.9001 32.3053 43.5551 32.7353 43.3151C33.1753 43.0751 33.6753 42.9551 34.2353 42.9551ZM43.8585 42.9551C44.4985 42.9551 45.0635 43.1101 45.5535 43.4201C46.0435 43.7301 46.4235 44.1701 46.6935 44.7401C46.9635 45.3001 47.0985 45.9551 47.0985 46.7051C47.0985 47.4651 46.9635 48.1351 46.6935 48.7151C46.4235 49.2851 46.0435 49.7301 45.5535 50.0501C45.0635 50.3601 44.4985 50.5151 43.8585 50.5151C43.2685 50.5151 42.7585 50.3901 42.3285 50.1401C41.8985 49.8801 41.5735 49.5051 41.3535 49.0151V50.0051C41.3535 50.1451 41.3135 50.2601 41.2335 50.3501C41.1535 50.4301 41.0435 50.4701 40.9035 50.4701C40.7635 50.4701 40.6485 50.4301 40.5585 50.3501C40.4785 50.2601 40.4385 50.1451 40.4385 50.0051V40.2251C40.4385 40.0851 40.4785 39.9751 40.5585 39.8951C40.6485 39.8051 40.7635 39.7601 40.9035 39.7601C41.0435 39.7601 41.1535 39.8051 41.2335 39.8951C41.3135 39.9751 41.3535 40.0851 41.3535 40.2251V44.4551C41.5735 43.9651 41.8985 43.5951 42.3285 43.3451C42.7585 43.0851 43.2685 42.9551 43.8585 42.9551ZM43.7385 49.7051C44.4985 49.7051 45.0885 49.4401 45.5085 48.9101C45.9385 48.3801 46.1535 47.6451 46.1535 46.7051C46.1535 45.7651 45.9385 45.0401 45.5085 44.5301C45.0885 44.0101 44.4935 43.7501 43.7235 43.7501C42.9635 43.7501 42.3785 44.0101 41.9685 44.5301C41.5585 45.0501 41.3535 45.7851 41.3535 46.7351C41.3535 47.6851 41.5585 48.4201 41.9685 48.9401C42.3885 49.4501 42.9785 49.7051 43.7385 49.7051ZM53.1321 50.5151C52.4621 50.5151 51.8721 50.3601 51.3621 50.0501C50.8621 49.7401 50.4721 49.3001 50.1921 48.7301C49.9121 48.1601 49.7721 47.4951 49.7721 46.7351C49.7721 45.9751 49.9121 45.3101 50.1921 44.7401C50.4721 44.1701 50.8621 43.7301 51.3621 43.4201C51.8721 43.1101 52.4621 42.9551 53.1321 42.9551C53.7921 42.9551 54.3771 43.1101 54.8871 43.4201C55.3971 43.7301 55.7871 44.1701 56.0571 44.7401C56.3371 45.3101 56.4771 45.9751 56.4771 46.7351C56.4771 47.4951 56.3371 48.1601 56.0571 48.7301C55.7871 49.3001 55.3971 49.7401 54.8871 50.0501C54.3771 50.3601 53.7921 50.5151 53.1321 50.5151ZM53.1171 49.7051C53.8871 49.7051 54.4821 49.4501 54.9021 48.9401C55.3221 48.4301 55.5321 47.6951 55.5321 46.7351C55.5321 45.7951 55.3171 45.0651 54.8871 44.5451C54.4671 44.0151 53.8821 43.7501 53.1321 43.7501C52.3721 43.7501 51.7821 44.0151 51.3621 44.5451C50.9421 45.0651 50.7321 45.7951 50.7321 46.7351C50.7321 47.6951 50.9371 48.4301 51.3471 48.9401C51.7571 49.4501 52.3471 49.7051 53.1171 49.7051ZM62.4909 42.9551C63.3709 42.9551 64.0259 43.1851 64.4559 43.6451C64.8959 44.1051 65.1159 44.8001 65.1159 45.7301V50.0051C65.1159 50.1451 65.0759 50.2601 64.9959 50.3501C64.9159 50.4301 64.8059 50.4701 64.6659 50.4701C64.5259 50.4701 64.4159 50.4301 64.3359 50.3501C64.2559 50.2601 64.2159 50.1451 64.2159 50.0051V49.1051C64.0059 49.5551 63.7009 49.9051 63.3009 50.1551C62.9009 50.3951 62.4409 50.5151 61.9209 50.5151C61.4509 50.5151 61.0209 50.4201 60.6309 50.2301C60.2509 50.0401 59.9459 49.7801 59.7159 49.4501C59.4859 49.1201 59.3709 48.7501 59.3709 48.3401C59.3609 47.7901 59.4959 47.3651 59.7759 47.0651C60.0559 46.7551 60.5209 46.5351 61.1709 46.4051C61.8209 46.2751 62.7309 46.2101 63.9009 46.2101H64.2159V45.6551C64.2159 44.9951 64.0809 44.5151 63.8109 44.2151C63.5409 43.9051 63.1159 43.7501 62.5359 43.7501C61.7959 43.7501 61.0909 43.9451 60.4209 44.3351C60.3909 44.3551 60.3109 44.4101 60.1809 44.5001C60.0609 44.5801 59.9559 44.6201 59.8659 44.6201C59.7659 44.6201 59.6809 44.5851 59.6109 44.5151C59.5509 44.4351 59.5209 44.3401 59.5209 44.2301C59.5209 44.0101 59.6959 43.7951 60.0459 43.5851C60.3959 43.3851 60.7859 43.2301 61.2159 43.1201C61.6459 43.0101 62.0709 42.9551 62.4909 42.9551ZM61.9959 49.7201C62.6459 49.7201 63.1759 49.5001 63.5859 49.0601C64.0059 48.6201 64.2159 48.0601 64.2159 47.3801V46.8851H63.9309C62.9709 46.8851 62.2359 46.9251 61.7259 47.0051C61.2159 47.0851 60.8559 47.2251 60.6459 47.4251C60.4359 47.6151 60.3309 47.8951 60.3309 48.2651C60.3309 48.6851 60.4909 49.0351 60.8109 49.3151C61.1309 49.5851 61.5259 49.7201 61.9959 49.7201ZM72.0964 42.9851C72.2864 42.9751 72.4214 43.0001 72.5014 43.0601C72.5814 43.1201 72.6214 43.2201 72.6214 43.3601C72.6214 43.6101 72.4714 43.7501 72.1714 43.7801L71.7214 43.8251C71.0114 43.8951 70.4814 44.1501 70.1314 44.5901C69.7914 45.0301 69.6214 45.5451 69.6214 46.1351V50.0201C69.6214 50.1701 69.5814 50.2851 69.5014 50.3651C69.4214 50.4451 69.3114 50.4851 69.1714 50.4851C69.0314 50.4851 68.9164 50.4451 68.8264 50.3651C68.7464 50.2851 68.7064 50.1701 68.7064 50.0201V43.4501C68.7064 43.3001 68.7464 43.1851 68.8264 43.1051C68.9164 43.0251 69.0314 42.9851 69.1714 42.9851C69.3014 42.9851 69.4064 43.0251 69.4864 43.1051C69.5664 43.1851 69.6064 43.2951 69.6064 43.4351V44.4101C70.0164 43.5501 70.7764 43.0801 71.8864 43.0001L72.0964 42.9851ZM80.573 39.7601C80.713 39.7601 80.823 39.8051 80.903 39.8951C80.993 39.9751 81.038 40.0851 81.038 40.2251V50.0051C81.038 50.1451 80.993 50.2601 80.903 50.3501C80.823 50.4301 80.713 50.4701 80.573 50.4701C80.433 50.4701 80.323 50.4301 80.243 50.3501C80.163 50.2601 80.123 50.1451 80.123 50.0051V49.0151C79.903 49.5051 79.578 49.8801 79.148 50.1401C78.718 50.3901 78.208 50.5151 77.618 50.5151C76.978 50.5151 76.413 50.3601 75.923 50.0501C75.433 49.7301 75.053 49.2851 74.783 48.7151C74.513 48.1351 74.378 47.4651 74.378 46.7051C74.378 45.9551 74.513 45.3001 74.783 44.7401C75.053 44.1701 75.433 43.7301 75.923 43.4201C76.413 43.1101 76.978 42.9551 77.618 42.9551C78.208 42.9551 78.718 43.0851 79.148 43.3451C79.578 43.5951 79.903 43.9651 80.123 44.4551V40.2251C80.123 40.0851 80.163 39.9751 80.243 39.8951C80.323 39.8051 80.433 39.7601 80.573 39.7601ZM77.738 49.7051C78.498 49.7051 79.083 49.4501 79.493 48.9401C79.913 48.4201 80.123 47.6851 80.123 46.7351C80.123 45.7851 79.918 45.0501 79.508 44.5301C79.098 44.0101 78.513 43.7501 77.753 43.7501C76.983 43.7501 76.388 44.0101 75.968 44.5301C75.548 45.0401 75.338 45.7651 75.338 46.7051C75.338 47.6551 75.548 48.3951 75.968 48.9251C76.388 49.4451 76.978 49.7051 77.738 49.7051Z" fill="#219653"/>
<path d="M41.5 6.03561H53.1667V14.8479H41.5V6.03561ZM41.5 31.0038V16.3166H53.1667V31.0038H41.5ZM28.375 31.0038V22.1915H40.0417V31.0038H28.375ZM28.375 20.7228V6.03561H40.0417V20.7228H28.375ZM29.8333 7.50433V19.2541H38.5833V7.50433H29.8333ZM42.9583 7.50433V13.3792H51.7083V7.50433H42.9583ZM42.9583 17.7854V29.5351H51.7083V17.7854H42.9583ZM29.8333 23.6602V29.5351H38.5833V23.6602H29.8333Z" fill="#219653"/>
</svg>
