<svg width="130" height="25" viewBox="0 0 130 25" fill="none" xmlns="http://www.w3.org/2000/svg">
<path d="M46.86 18C46.72 18 46.6 17.955 46.5 17.865C46.41 17.775 46.365 17.665 46.365 17.535V7.89C46.365 7.76 46.41 7.65 46.5 7.56C46.6 7.47 46.72 7.425 46.86 7.425H49.77C51.44 7.425 52.73 7.88 53.64 8.79C54.56 9.7 55.02 11.005 55.02 12.705C55.02 14.405 54.56 15.715 53.64 16.635C52.73 17.545 51.44 18 49.77 18H46.86ZM49.725 17.19C52.605 17.19 54.045 15.695 54.045 12.705C54.045 9.725 52.605 8.235 49.725 8.235H47.295V17.19H49.725ZM60.0517 10.545C60.9317 10.545 61.5867 10.775 62.0167 11.235C62.4567 11.695 62.6767 12.39 62.6767 13.32V17.595C62.6767 17.735 62.6367 17.85 62.5567 17.94C62.4767 18.02 62.3667 18.06 62.2267 18.06C62.0867 18.06 61.9767 18.02 61.8967 17.94C61.8167 17.85 61.7767 17.735 61.7767 17.595V16.695C61.5667 17.145 61.2617 17.495 60.8617 17.745C60.4617 17.985 60.0017 18.105 59.4817 18.105C59.0117 18.105 58.5817 18.01 58.1917 17.82C57.8117 17.63 57.5067 17.37 57.2767 17.04C57.0467 16.71 56.9317 16.34 56.9317 15.93C56.9217 15.38 57.0567 14.955 57.3367 14.655C57.6167 14.345 58.0817 14.125 58.7317 13.995C59.3817 13.865 60.2917 13.8 61.4617 13.8H61.7767V13.245C61.7767 12.585 61.6417 12.105 61.3717 11.805C61.1017 11.495 60.6767 11.34 60.0967 11.34C59.3567 11.34 58.6517 11.535 57.9817 11.925C57.9517 11.945 57.8717 12 57.7417 12.09C57.6217 12.17 57.5167 12.21 57.4267 12.21C57.3267 12.21 57.2417 12.175 57.1717 12.105C57.1117 12.025 57.0817 11.93 57.0817 11.82C57.0817 11.6 57.2567 11.385 57.6067 11.175C57.9567 10.975 58.3467 10.82 58.7767 10.71C59.2067 10.6 59.6317 10.545 60.0517 10.545ZM59.5567 17.31C60.2067 17.31 60.7367 17.09 61.1467 16.65C61.5667 16.21 61.7767 15.65 61.7767 14.97V14.475H61.4917C60.5317 14.475 59.7967 14.515 59.2867 14.595C58.7767 14.675 58.4167 14.815 58.2067 15.015C57.9967 15.205 57.8917 15.485 57.8917 15.855C57.8917 16.275 58.0517 16.625 58.3717 16.905C58.6917 17.175 59.0867 17.31 59.5567 17.31ZM67.4222 18.105C67.0022 18.105 66.5872 18.05 66.1772 17.94C65.7772 17.82 65.4222 17.66 65.1122 17.46C64.9222 17.33 64.7872 17.22 64.7072 17.13C64.6372 17.03 64.6022 16.92 64.6022 16.8C64.6022 16.7 64.6322 16.615 64.6922 16.545C64.7622 16.475 64.8422 16.44 64.9322 16.44C65.0222 16.44 65.1772 16.515 65.3972 16.665C65.6872 16.855 65.9822 17.01 66.2822 17.13C66.5922 17.25 66.9772 17.31 67.4372 17.31C68.0272 17.31 68.4872 17.205 68.8172 16.995C69.1472 16.775 69.3122 16.465 69.3122 16.065C69.3122 15.825 69.2522 15.63 69.1322 15.48C69.0122 15.32 68.8122 15.185 68.5322 15.075C68.2522 14.955 67.8522 14.84 67.3322 14.73C66.4422 14.53 65.8072 14.275 65.4272 13.965C65.0572 13.645 64.8722 13.22 64.8722 12.69C64.8722 12.05 65.1222 11.535 65.6222 11.145C66.1222 10.745 66.7722 10.545 67.5722 10.545C67.9622 10.545 68.3322 10.595 68.6822 10.695C69.0422 10.795 69.3522 10.94 69.6122 11.13C69.9622 11.37 70.1372 11.605 70.1372 11.835C70.1372 11.935 70.1022 12.025 70.0322 12.105C69.9722 12.175 69.8972 12.21 69.8072 12.21C69.7072 12.21 69.5522 12.13 69.3422 11.97C69.0722 11.78 68.8022 11.63 68.5322 11.52C68.2722 11.4 67.9372 11.34 67.5272 11.34C67.0072 11.34 66.5922 11.46 66.2822 11.7C65.9722 11.93 65.8172 12.245 65.8172 12.645C65.8172 12.875 65.8672 13.065 65.9672 13.215C66.0772 13.365 66.2572 13.5 66.5072 13.62C66.7672 13.73 67.1372 13.84 67.6172 13.95C68.3072 14.11 68.8372 14.28 69.2072 14.46C69.5772 14.64 69.8422 14.855 70.0022 15.105C70.1622 15.355 70.2422 15.675 70.2422 16.065C70.2422 16.675 69.9822 17.17 69.4622 17.55C68.9522 17.92 68.2722 18.105 67.4222 18.105ZM75.6353 10.545C77.3853 10.545 78.2603 11.485 78.2603 13.365V17.61C78.2603 17.75 78.2203 17.865 78.1403 17.955C78.0603 18.035 77.9503 18.075 77.8103 18.075C77.6703 18.075 77.5553 18.035 77.4653 17.955C77.3853 17.865 77.3453 17.75 77.3453 17.61V13.425C77.3453 12.705 77.2003 12.18 76.9103 11.85C76.6203 11.52 76.1603 11.355 75.5303 11.355C74.8103 11.355 74.2303 11.575 73.7903 12.015C73.3603 12.455 73.1453 13.045 73.1453 13.785V17.61C73.1453 17.75 73.1053 17.865 73.0253 17.955C72.9453 18.035 72.8353 18.075 72.6953 18.075C72.5553 18.075 72.4403 18.035 72.3503 17.955C72.2703 17.865 72.2303 17.75 72.2303 17.61V7.815C72.2303 7.675 72.2703 7.565 72.3503 7.485C72.4403 7.395 72.5553 7.35 72.6953 7.35C72.8353 7.35 72.9453 7.395 73.0253 7.485C73.1053 7.565 73.1453 7.675 73.1453 7.815V11.94C73.3753 11.49 73.7053 11.145 74.1353 10.905C74.5753 10.665 75.0753 10.545 75.6353 10.545ZM84.0585 10.545C84.6985 10.545 85.2635 10.7 85.7535 11.01C86.2435 11.32 86.6235 11.76 86.8935 12.33C87.1635 12.89 87.2985 13.545 87.2985 14.295C87.2985 15.055 87.1635 15.725 86.8935 16.305C86.6235 16.875 86.2435 17.32 85.7535 17.64C85.2635 17.95 84.6985 18.105 84.0585 18.105C83.4685 18.105 82.9585 17.98 82.5285 17.73C82.0985 17.47 81.7735 17.095 81.5535 16.605V17.595C81.5535 17.735 81.5135 17.85 81.4335 17.94C81.3535 18.02 81.2435 18.06 81.1035 18.06C80.9635 18.06 80.8485 18.02 80.7585 17.94C80.6785 17.85 80.6385 17.735 80.6385 17.595V7.815C80.6385 7.675 80.6785 7.565 80.7585 7.485C80.8485 7.395 80.9635 7.35 81.1035 7.35C81.2435 7.35 81.3535 7.395 81.4335 7.485C81.5135 7.565 81.5535 7.675 81.5535 7.815V12.045C81.7735 11.555 82.0985 11.185 82.5285 10.935C82.9585 10.675 83.4685 10.545 84.0585 10.545ZM83.9385 17.295C84.6985 17.295 85.2885 17.03 85.7085 16.5C86.1385 15.97 86.3535 15.235 86.3535 14.295C86.3535 13.355 86.1385 12.63 85.7085 12.12C85.2885 11.6 84.6935 11.34 83.9235 11.34C83.1635 11.34 82.5785 11.6 82.1685 12.12C81.7585 12.64 81.5535 13.375 81.5535 14.325C81.5535 15.275 81.7585 16.01 82.1685 16.53C82.5885 17.04 83.1785 17.295 83.9385 17.295ZM92.1321 18.105C91.4621 18.105 90.8721 17.95 90.3621 17.64C89.8621 17.33 89.4721 16.89 89.1921 16.32C88.9121 15.75 88.7721 15.085 88.7721 14.325C88.7721 13.565 88.9121 12.9 89.1921 12.33C89.4721 11.76 89.8621 11.32 90.3621 11.01C90.8721 10.7 91.4621 10.545 92.1321 10.545C92.7921 10.545 93.3771 10.7 93.8871 11.01C94.3971 11.32 94.7871 11.76 95.0571 12.33C95.3371 12.9 95.4771 13.565 95.4771 14.325C95.4771 15.085 95.3371 15.75 95.0571 16.32C94.7871 16.89 94.3971 17.33 93.8871 17.64C93.3771 17.95 92.7921 18.105 92.1321 18.105ZM92.1171 17.295C92.8871 17.295 93.4821 17.04 93.9021 16.53C94.3221 16.02 94.5321 15.285 94.5321 14.325C94.5321 13.385 94.3171 12.655 93.8871 12.135C93.4671 11.605 92.8821 11.34 92.1321 11.34C91.3721 11.34 90.7821 11.605 90.3621 12.135C89.9421 12.655 89.7321 13.385 89.7321 14.325C89.7321 15.285 89.9371 16.02 90.3471 16.53C90.7571 17.04 91.3471 17.295 92.1171 17.295ZM100.291 10.545C101.171 10.545 101.826 10.775 102.256 11.235C102.696 11.695 102.916 12.39 102.916 13.32V17.595C102.916 17.735 102.876 17.85 102.796 17.94C102.716 18.02 102.606 18.06 102.466 18.06C102.326 18.06 102.216 18.02 102.136 17.94C102.056 17.85 102.016 17.735 102.016 17.595V16.695C101.806 17.145 101.501 17.495 101.101 17.745C100.701 17.985 100.241 18.105 99.7209 18.105C99.2509 18.105 98.8209 18.01 98.4309 17.82C98.0509 17.63 97.7459 17.37 97.5159 17.04C97.2859 16.71 97.1709 16.34 97.1709 15.93C97.1609 15.38 97.2959 14.955 97.5759 14.655C97.8559 14.345 98.3209 14.125 98.9709 13.995C99.6209 13.865 100.531 13.8 101.701 13.8H102.016V13.245C102.016 12.585 101.881 12.105 101.611 11.805C101.341 11.495 100.916 11.34 100.336 11.34C99.5959 11.34 98.8909 11.535 98.2209 11.925C98.1909 11.945 98.1109 12 97.9809 12.09C97.8609 12.17 97.7559 12.21 97.6659 12.21C97.5659 12.21 97.4809 12.175 97.4109 12.105C97.3509 12.025 97.3209 11.93 97.3209 11.82C97.3209 11.6 97.4959 11.385 97.8459 11.175C98.1959 10.975 98.5859 10.82 99.0159 10.71C99.4459 10.6 99.8709 10.545 100.291 10.545ZM99.7959 17.31C100.446 17.31 100.976 17.09 101.386 16.65C101.806 16.21 102.016 15.65 102.016 14.97V14.475H101.731C100.771 14.475 100.036 14.515 99.5259 14.595C99.0159 14.675 98.6559 14.815 98.4459 15.015C98.2359 15.205 98.1309 15.485 98.1309 15.855C98.1309 16.275 98.2909 16.625 98.6109 16.905C98.9309 17.175 99.3259 17.31 99.7959 17.31ZM108.696 10.575C108.886 10.565 109.021 10.59 109.101 10.65C109.181 10.71 109.221 10.81 109.221 10.95C109.221 11.2 109.071 11.34 108.771 11.37L108.321 11.415C107.611 11.485 107.081 11.74 106.731 12.18C106.391 12.62 106.221 13.135 106.221 13.725V17.61C106.221 17.76 106.181 17.875 106.101 17.955C106.021 18.035 105.911 18.075 105.771 18.075C105.631 18.075 105.516 18.035 105.426 17.955C105.346 17.875 105.306 17.76 105.306 17.61V11.04C105.306 10.89 105.346 10.775 105.426 10.695C105.516 10.615 105.631 10.575 105.771 10.575C105.901 10.575 106.006 10.615 106.086 10.695C106.166 10.775 106.206 10.885 106.206 11.025V12C106.616 11.14 107.376 10.67 108.486 10.59L108.696 10.575ZM115.973 7.35C116.113 7.35 116.223 7.395 116.303 7.485C116.393 7.565 116.438 7.675 116.438 7.815V17.595C116.438 17.735 116.393 17.85 116.303 17.94C116.223 18.02 116.113 18.06 115.973 18.06C115.833 18.06 115.723 18.02 115.643 17.94C115.563 17.85 115.523 17.735 115.523 17.595V16.605C115.303 17.095 114.978 17.47 114.548 17.73C114.118 17.98 113.608 18.105 113.018 18.105C112.378 18.105 111.813 17.95 111.323 17.64C110.833 17.32 110.453 16.875 110.183 16.305C109.913 15.725 109.778 15.055 109.778 14.295C109.778 13.545 109.913 12.89 110.183 12.33C110.453 11.76 110.833 11.32 111.323 11.01C111.813 10.7 112.378 10.545 113.018 10.545C113.608 10.545 114.118 10.675 114.548 10.935C114.978 11.185 115.303 11.555 115.523 12.045V7.815C115.523 7.675 115.563 7.565 115.643 7.485C115.723 7.395 115.833 7.35 115.973 7.35ZM113.138 17.295C113.898 17.295 114.483 17.04 114.893 16.53C115.313 16.01 115.523 15.275 115.523 14.325C115.523 13.375 115.318 12.64 114.908 12.12C114.498 11.6 113.913 11.34 113.153 11.34C112.383 11.34 111.788 11.6 111.368 12.12C110.948 12.63 110.738 13.355 110.738 14.295C110.738 15.245 110.948 15.985 111.368 16.515C111.788 17.035 112.378 17.295 113.138 17.295Z" fill="#303030"/>
<path d="M13.125 0H24.7917V8.81231H13.125V0ZM13.125 24.9682V10.281H24.7917V24.9682H13.125ZM0 24.9682V16.1559H11.6667V24.9682H0ZM0 14.6872V0H11.6667V14.6872H0ZM1.45833 1.46872V13.2185H10.2083V1.46872H1.45833ZM14.5833 1.46872V7.34359H23.3333V1.46872H14.5833ZM14.5833 11.7497V23.4995H23.3333V11.7497H14.5833ZM1.45833 17.6246V23.4995H10.2083V17.6246H1.45833Z" fill="#303030"/>
</svg>
