<svg width="101" height="101" viewBox="0 0 101 101" fill="none" xmlns="http://www.w3.org/2000/svg">
<path d="M100.109 59.9687C98.5968 52.2096 95.5063 45.2231 90.8377 39.0093C86.1691 32.7954 80.3005 27.8966 73.2318 24.313C66.1631 20.7293 58.5848 18.9375 50.4969 18.9375C47.8667 18.9375 45.631 18.0169 43.7899 16.1758C41.9487 14.3346 41.0282 12.099 41.0282 9.46875C41.0282 6.83854 41.9487 4.60286 43.7899 2.76172C45.631 0.920573 47.8667 0 50.4969 0C57.3354 0 63.8781 1.33154 70.1248 3.99463C76.3716 6.65771 81.7471 10.2414 86.2513 14.7456C90.7555 19.2498 94.3392 24.6253 97.0023 30.8721C99.6654 37.1188 100.997 43.6615 100.997 50.5C100.997 53.5905 100.701 56.7467 100.109 59.9687ZM77.8182 66.2812C79.1333 64.0456 81.0566 62.5825 83.5882 61.8921C86.1198 61.2017 88.5199 61.514 90.7884 62.8291C93.057 64.1442 94.52 66.0675 95.1776 68.5991C95.8351 71.1307 95.5063 73.5143 94.1912 75.75C90.772 81.668 86.3499 86.6654 80.9251 90.7422C75.5003 94.819 69.7139 97.6794 63.5658 99.3232C57.4176 100.967 50.9736 101.378 44.2337 100.556C37.4938 99.7342 31.1649 97.6136 25.2469 94.1943C22.5509 92.682 19.9865 90.8408 17.5535 88.6709C23.077 90.7093 28.7812 91.6463 34.6663 91.4819C40.5514 91.3175 46.1571 90.2983 51.4832 88.4243C56.8094 86.5503 61.7739 83.7064 66.3768 79.8926C70.9797 76.0788 74.7935 71.5417 77.8182 66.2812ZM23.1756 66.2812C24.4907 68.5169 24.8031 70.9006 24.1126 73.4321C23.4222 75.9637 21.9427 77.887 19.6742 79.2021C17.4056 80.5173 15.022 80.8296 12.5233 80.1392C10.0246 79.4487 8.11767 77.9857 6.80257 75.75C3.3833 69.832 1.2627 63.5031 0.440755 56.7632C-0.381185 50.0233 0.0297852 43.5793 1.67367 37.4312C3.31755 31.283 6.1779 25.4966 10.2547 20.0718C14.3315 14.647 19.3289 10.2249 25.2469 6.80566C27.9429 5.22754 30.8361 3.91243 33.9266 2.86035C27.9429 7.98926 23.4222 14.1374 20.3646 21.3047C17.307 28.472 16.0083 36.0174 16.4686 43.9409C16.9289 51.8644 19.1646 59.3112 23.1756 66.2812Z" fill="#39E991"/>
</svg>
