<svg width="60" height="61" viewBox="0 0 60 61" fill="none" xmlns="http://www.w3.org/2000/svg">
<path d="M53.5279 36.3779C50.287 49.4692 37.1243 57.4307 24.133 54.1685C11.1417 50.9064 3.23105 37.6532 6.47198 24.562C9.71291 11.4708 22.8756 3.50927 35.8669 6.77142C48.8582 10.0336 56.7688 23.2867 53.5279 36.3779Z" stroke="#39E991"/>
<path d="M55.649 32.3257C55.649 44.4685 45.8787 54.2879 33.8563 54.2879C21.8338 54.2879 12.0635 44.4685 12.0635 32.3257C12.0635 20.1829 21.8338 10.3635 33.8563 10.3635C45.8787 10.3635 55.649 20.1829 55.649 32.3257Z" stroke="#39E991" stroke-width="4"/>
<path d="M49.5567 34.4694C46.9742 44.901 36.4861 51.244 26.1357 48.645C15.7852 46.0459 9.48158 35.4864 12.0641 25.0549C14.6466 14.6233 25.1347 8.28023 35.4851 10.8793C45.8356 13.4783 52.1392 24.0378 49.5567 34.4694Z" stroke="#39E991"/>
</svg>
