<svg width="106" height="60" viewBox="0 0 106 60" fill="none" xmlns="http://www.w3.org/2000/svg">
<path fill-rule="evenodd" clip-rule="evenodd" d="M63.9356 4.21668C64.7464 4.21668 65.4038 4.93368 65.4038 5.81746V31.621C65.4038 32.5051 64.7646 33.2218 63.9457 33.2218H34.8619C34.0566 33.2218 33.4038 32.5048 33.4038 31.621V5.81746C33.4038 4.93338 34.0487 4.21668 34.872 4.21668H39.222V5.82808L34.8584 5.90361V31.6104H63.9493V5.82808H59.5856V4.21668H63.9356ZM53.7674 4.21668H52.3129V5.82808H53.7674V4.21668ZM46.4947 4.21668H45.0402V5.82808H46.4947V4.21668ZM40.9944 12.2737C40.8188 12.2737 40.6765 12.4166 40.6765 12.5959V13.5628C40.6765 13.7408 40.817 13.885 40.9944 13.885H57.8133C57.9888 13.885 58.1311 13.7421 58.1311 13.5628V12.5959C58.1311 12.4179 57.9906 12.2737 57.8133 12.2737H40.9944ZM40.9944 18.7192C40.8188 18.7192 40.6765 18.8622 40.6765 19.0414V20.0084C40.6765 20.1864 40.817 20.3306 40.9944 20.3306H57.8133C57.9888 20.3306 58.1311 20.1876 58.1311 20.0084V19.0414C58.1311 18.8635 57.9906 18.7192 57.8133 18.7192H40.9944ZM40.9944 25.1648C40.8188 25.1648 40.6765 25.3078 40.6765 25.487V26.454C40.6765 26.632 40.817 26.7762 40.9944 26.7762H57.8133C57.9888 26.7762 58.1311 26.6332 58.1311 26.454V25.487C58.1311 25.309 57.9906 25.1648 57.8133 25.1648H40.9944ZM42.1311 7.43947C42.9344 7.43947 43.5856 5.99658 43.5856 4.21668C43.5856 2.43679 42.9344 0.993896 42.1311 0.993896C41.3278 0.993896 40.6765 2.43679 40.6765 4.21668C40.6765 5.99658 41.3278 7.43947 42.1311 7.43947ZM49.4038 7.43947C50.2071 7.43947 50.8584 5.99658 50.8584 4.21668C50.8584 2.43679 50.2071 0.993896 49.4038 0.993896C48.6005 0.993896 47.9493 2.43679 47.9493 4.21668C47.9493 5.99658 48.6005 7.43947 49.4038 7.43947ZM56.6765 7.43947C57.4799 7.43947 58.1311 5.99658 58.1311 4.21668C58.1311 2.43679 57.4799 0.993896 56.6765 0.993896C55.8732 0.993896 55.222 2.43679 55.222 4.21668C55.222 5.99658 55.8732 7.43947 56.6765 7.43947Z" fill="#219653"/>
<path d="M10.755 46.35C10.905 46.35 11.02 46.395 11.1 46.485C11.19 46.575 11.235 46.69 11.235 46.83V56.595C11.235 56.735 11.195 56.85 11.115 56.94C11.035 57.03 10.925 57.075 10.785 57.075C10.645 57.075 10.54 57.035 10.47 56.955C10.4 56.865 10.365 56.745 10.365 56.595V48.27L6.81 55.14C6.69 55.37 6.525 55.485 6.315 55.485C6.105 55.485 5.94 55.37 5.82 55.14L2.235 48.33V56.595C2.235 56.745 2.2 56.865 2.13 56.955C2.06 57.035 1.955 57.075 1.815 57.075C1.665 57.075 1.55 57.035 1.47 56.955C1.4 56.865 1.365 56.745 1.365 56.595V46.83C1.365 46.69 1.405 46.575 1.485 46.485C1.575 46.395 1.695 46.35 1.845 46.35C2.025 46.35 2.175 46.465 2.295 46.695L6.33 54.435L10.305 46.695C10.425 46.465 10.575 46.35 10.755 46.35ZM19.3777 55.44C19.4677 55.44 19.5427 55.48 19.6027 55.56C19.6727 55.63 19.7077 55.715 19.7077 55.815C19.7077 56.035 19.5377 56.25 19.1977 56.46C18.4777 56.89 17.7177 57.105 16.9177 57.105C15.8077 57.105 14.9327 56.77 14.2927 56.1C13.6527 55.43 13.3327 54.51 13.3327 53.34C13.3327 52.59 13.4727 51.93 13.7527 51.36C14.0427 50.78 14.4427 50.335 14.9527 50.025C15.4727 49.705 16.0677 49.545 16.7377 49.545C17.6777 49.545 18.4177 49.85 18.9577 50.46C19.5077 51.06 19.7827 51.89 19.7827 52.95C19.7827 53.13 19.7427 53.265 19.6627 53.355C19.5827 53.435 19.4527 53.475 19.2727 53.475H14.2777C14.3077 54.395 14.5477 55.095 14.9977 55.575C15.4477 56.055 16.0827 56.295 16.9027 56.295C17.3327 56.295 17.6927 56.24 17.9827 56.13C18.2727 56.01 18.5827 55.855 18.9127 55.665C19.1327 55.515 19.2877 55.44 19.3777 55.44ZM16.7377 50.295C16.0377 50.295 15.4777 50.515 15.0577 50.955C14.6377 51.395 14.3877 52.01 14.3077 52.8H18.9427C18.9227 52 18.7227 51.385 18.3427 50.955C17.9627 50.515 17.4277 50.295 16.7377 50.295ZM27.1232 49.575C27.2632 49.575 27.3732 49.62 27.4532 49.71C27.5432 49.79 27.5882 49.9 27.5882 50.04V56.61C27.5882 56.75 27.5432 56.865 27.4532 56.955C27.3732 57.035 27.2632 57.075 27.1232 57.075C26.9932 57.075 26.8882 57.035 26.8082 56.955C26.7282 56.865 26.6882 56.75 26.6882 56.61V55.695C26.4582 56.155 26.1282 56.505 25.6982 56.745C25.2782 56.985 24.7982 57.105 24.2582 57.105C23.3982 57.105 22.7482 56.87 22.3082 56.4C21.8782 55.92 21.6632 55.215 21.6632 54.285V50.04C21.6632 49.9 21.7032 49.79 21.7832 49.71C21.8732 49.62 21.9882 49.575 22.1282 49.575C22.2682 49.575 22.3782 49.62 22.4582 49.71C22.5382 49.79 22.5782 49.9 22.5782 50.04V54.225C22.5782 54.935 22.7182 55.46 22.9982 55.8C23.2882 56.13 23.7382 56.295 24.3482 56.295C25.0482 56.295 25.6082 56.075 26.0282 55.635C26.4582 55.185 26.6732 54.59 26.6732 53.85V50.04C26.6732 49.9 26.7132 49.79 26.7932 49.71C26.8732 49.62 26.9832 49.575 27.1232 49.575ZM32.3392 57.105C31.9192 57.105 31.5042 57.05 31.0942 56.94C30.6942 56.82 30.3392 56.66 30.0292 56.46C29.8392 56.33 29.7042 56.22 29.6242 56.13C29.5542 56.03 29.5192 55.92 29.5192 55.8C29.5192 55.7 29.5492 55.615 29.6092 55.545C29.6792 55.475 29.7592 55.44 29.8492 55.44C29.9392 55.44 30.0942 55.515 30.3142 55.665C30.6042 55.855 30.8992 56.01 31.1992 56.13C31.5092 56.25 31.8942 56.31 32.3542 56.31C32.9442 56.31 33.4042 56.205 33.7342 55.995C34.0642 55.775 34.2292 55.465 34.2292 55.065C34.2292 54.825 34.1692 54.63 34.0492 54.48C33.9292 54.32 33.7292 54.185 33.4492 54.075C33.1692 53.955 32.7692 53.84 32.2492 53.73C31.3592 53.53 30.7242 53.275 30.3442 52.965C29.9742 52.645 29.7892 52.22 29.7892 51.69C29.7892 51.05 30.0392 50.535 30.5392 50.145C31.0392 49.745 31.6892 49.545 32.4892 49.545C32.8792 49.545 33.2492 49.595 33.5992 49.695C33.9592 49.795 34.2692 49.94 34.5292 50.13C34.8792 50.37 35.0542 50.605 35.0542 50.835C35.0542 50.935 35.0192 51.025 34.9492 51.105C34.8892 51.175 34.8142 51.21 34.7242 51.21C34.6242 51.21 34.4692 51.13 34.2592 50.97C33.9892 50.78 33.7192 50.63 33.4492 50.52C33.1892 50.4 32.8542 50.34 32.4442 50.34C31.9242 50.34 31.5092 50.46 31.1992 50.7C30.8892 50.93 30.7342 51.245 30.7342 51.645C30.7342 51.875 30.7842 52.065 30.8842 52.215C30.9942 52.365 31.1742 52.5 31.4242 52.62C31.6842 52.73 32.0542 52.84 32.5342 52.95C33.2242 53.11 33.7542 53.28 34.1242 53.46C34.4942 53.64 34.7592 53.855 34.9192 54.105C35.0792 54.355 35.1592 54.675 35.1592 55.065C35.1592 55.675 34.8992 56.17 34.3792 56.55C33.8692 56.92 33.1892 57.105 32.3392 57.105ZM48.9966 56.445C49.0566 56.535 49.0866 56.62 49.0866 56.7C49.0866 56.81 49.0416 56.905 48.9516 56.985C48.8716 57.055 48.7766 57.09 48.6666 57.09C48.4966 57.09 48.3616 57.01 48.2616 56.85L46.2366 53.61C45.9466 53.15 45.6466 52.835 45.3366 52.665C45.0366 52.495 44.6166 52.41 44.0766 52.41H42.0216V56.595C42.0216 56.745 41.9766 56.865 41.8866 56.955C41.8066 57.035 41.6966 57.075 41.5566 57.075C41.4166 57.075 41.3016 57.035 41.2116 56.955C41.1316 56.865 41.0916 56.745 41.0916 56.595V46.89C41.0916 46.76 41.1366 46.65 41.2266 46.56C41.3266 46.47 41.4466 46.425 41.5866 46.425H45.3216C46.4316 46.425 47.2866 46.68 47.8866 47.19C48.4866 47.69 48.7866 48.425 48.7866 49.395C48.7866 50.245 48.5316 50.92 48.0216 51.42C47.5116 51.92 46.7916 52.21 45.8616 52.29C46.1016 52.37 46.3216 52.505 46.5216 52.695C46.7216 52.875 46.9266 53.13 47.1366 53.46L48.9966 56.445ZM45.2616 51.615C47.0016 51.615 47.8716 50.87 47.8716 49.38C47.8716 48.65 47.6566 48.11 47.2266 47.76C46.7966 47.4 46.1416 47.22 45.2616 47.22H42.0066V51.615H45.2616ZM56.7312 55.44C56.8212 55.44 56.8962 55.48 56.9562 55.56C57.0262 55.63 57.0612 55.715 57.0612 55.815C57.0612 56.035 56.8912 56.25 56.5512 56.46C55.8312 56.89 55.0712 57.105 54.2712 57.105C53.1612 57.105 52.2862 56.77 51.6462 56.1C51.0062 55.43 50.6862 54.51 50.6862 53.34C50.6862 52.59 50.8262 51.93 51.1062 51.36C51.3962 50.78 51.7962 50.335 52.3062 50.025C52.8262 49.705 53.4212 49.545 54.0912 49.545C55.0312 49.545 55.7712 49.85 56.3112 50.46C56.8612 51.06 57.1362 51.89 57.1362 52.95C57.1362 53.13 57.0962 53.265 57.0162 53.355C56.9362 53.435 56.8062 53.475 56.6262 53.475H51.6312C51.6612 54.395 51.9012 55.095 52.3512 55.575C52.8012 56.055 53.4362 56.295 54.2562 56.295C54.6862 56.295 55.0462 56.24 55.3362 56.13C55.6262 56.01 55.9362 55.855 56.2662 55.665C56.4862 55.515 56.6412 55.44 56.7312 55.44ZM54.0912 50.295C53.3912 50.295 52.8312 50.515 52.4112 50.955C51.9912 51.395 51.7412 52.01 51.6612 52.8H56.2962C56.2762 52 56.0762 51.385 55.6962 50.955C55.3162 50.515 54.7812 50.295 54.0912 50.295ZM64.8367 49.575C64.9767 49.575 65.0867 49.62 65.1667 49.71C65.2567 49.79 65.3017 49.9 65.3017 50.04V56.58C65.3017 57.64 65.0367 58.44 64.5067 58.98C63.9867 59.53 63.2117 59.805 62.1817 59.805C61.6417 59.805 61.1567 59.75 60.7267 59.64C60.3067 59.54 59.9117 59.38 59.5417 59.16C59.1817 58.94 59.0017 58.725 59.0017 58.515C59.0017 58.405 59.0317 58.315 59.0917 58.245C59.1617 58.175 59.2467 58.14 59.3467 58.14C59.4067 58.14 59.4867 58.165 59.5867 58.215C59.6967 58.275 59.7717 58.315 59.8117 58.335C60.1517 58.525 60.5017 58.68 60.8617 58.8C61.2217 58.93 61.6667 58.995 62.1967 58.995C62.9267 58.995 63.4767 58.8 63.8467 58.41C64.2167 58.02 64.4017 57.44 64.4017 56.67V55.245C64.1917 55.735 63.8667 56.115 63.4267 56.385C62.9967 56.645 62.4717 56.775 61.8517 56.775C61.2117 56.775 60.6417 56.625 60.1417 56.325C59.6517 56.025 59.2667 55.6 58.9867 55.05C58.7167 54.5 58.5817 53.87 58.5817 53.16C58.5817 52.45 58.7167 51.82 58.9867 51.27C59.2667 50.72 59.6517 50.295 60.1417 49.995C60.6417 49.695 61.2117 49.545 61.8517 49.545C62.4617 49.545 62.9817 49.675 63.4117 49.935C63.8417 50.185 64.1667 50.555 64.3867 51.045V50.04C64.3867 49.9 64.4267 49.79 64.5067 49.71C64.5867 49.62 64.6967 49.575 64.8367 49.575ZM61.9717 55.965C62.7317 55.965 63.3217 55.715 63.7417 55.215C64.1717 54.715 64.3867 54.03 64.3867 53.16C64.3867 52.29 64.1717 51.605 63.7417 51.105C63.3117 50.595 62.7217 50.34 61.9717 50.34C61.2117 50.34 60.6167 50.59 60.1867 51.09C59.7567 51.59 59.5417 52.28 59.5417 53.16C59.5417 54.04 59.7567 54.73 60.1867 55.23C60.6167 55.72 61.2117 55.965 61.9717 55.965ZM68.1689 57.075C68.0289 57.075 67.9139 57.035 67.8239 56.955C67.7439 56.875 67.7039 56.76 67.7039 56.61V50.04C67.7039 49.89 67.7439 49.775 67.8239 49.695C67.9139 49.615 68.0289 49.575 68.1689 49.575C68.3089 49.575 68.4189 49.615 68.4989 49.695C68.5789 49.775 68.6189 49.89 68.6189 50.04V56.61C68.6189 56.76 68.5789 56.875 68.4989 56.955C68.4189 57.035 68.3089 57.075 68.1689 57.075ZM68.1689 47.88C67.9689 47.88 67.8039 47.82 67.6739 47.7C67.5539 47.58 67.4939 47.425 67.4939 47.235C67.4939 47.035 67.5539 46.875 67.6739 46.755C67.8039 46.635 67.9689 46.575 68.1689 46.575C68.3689 46.575 68.5289 46.635 68.6489 46.755C68.7789 46.875 68.8439 47.035 68.8439 47.235C68.8439 47.425 68.7789 47.58 68.6489 47.7C68.5289 47.82 68.3689 47.88 68.1689 47.88ZM73.3841 57.105C72.9641 57.105 72.5491 57.05 72.1391 56.94C71.7391 56.82 71.3841 56.66 71.0741 56.46C70.8841 56.33 70.7491 56.22 70.6691 56.13C70.5991 56.03 70.5641 55.92 70.5641 55.8C70.5641 55.7 70.5941 55.615 70.6541 55.545C70.7241 55.475 70.8041 55.44 70.8941 55.44C70.9841 55.44 71.1391 55.515 71.3591 55.665C71.6491 55.855 71.9441 56.01 72.2441 56.13C72.5541 56.25 72.9391 56.31 73.3991 56.31C73.9891 56.31 74.4491 56.205 74.7791 55.995C75.1091 55.775 75.2741 55.465 75.2741 55.065C75.2741 54.825 75.2141 54.63 75.0941 54.48C74.9741 54.32 74.7741 54.185 74.4941 54.075C74.2141 53.955 73.8141 53.84 73.2941 53.73C72.4041 53.53 71.7691 53.275 71.3891 52.965C71.0191 52.645 70.8341 52.22 70.8341 51.69C70.8341 51.05 71.0841 50.535 71.5841 50.145C72.0841 49.745 72.7341 49.545 73.5341 49.545C73.9241 49.545 74.2941 49.595 74.6441 49.695C75.0041 49.795 75.3141 49.94 75.5741 50.13C75.9241 50.37 76.0991 50.605 76.0991 50.835C76.0991 50.935 76.0641 51.025 75.9941 51.105C75.9341 51.175 75.8591 51.21 75.7691 51.21C75.6691 51.21 75.5141 51.13 75.3041 50.97C75.0341 50.78 74.7641 50.63 74.4941 50.52C74.2341 50.4 73.8991 50.34 73.4891 50.34C72.9691 50.34 72.5541 50.46 72.2441 50.7C71.9341 50.93 71.7791 51.245 71.7791 51.645C71.7791 51.875 71.8291 52.065 71.9291 52.215C72.0391 52.365 72.2191 52.5 72.4691 52.62C72.7291 52.73 73.0991 52.84 73.5791 52.95C74.2691 53.11 74.7991 53.28 75.1691 53.46C75.5391 53.64 75.8041 53.855 75.9641 54.105C76.1241 54.355 76.2041 54.675 76.2041 55.065C76.2041 55.675 75.9441 56.17 75.4241 56.55C74.9141 56.92 74.2341 57.105 73.3841 57.105ZM81.2839 56.31C81.5639 56.34 81.7039 56.47 81.7039 56.7C81.7039 56.82 81.6589 56.915 81.5689 56.985C81.4789 57.055 81.3339 57.085 81.1339 57.075L80.7139 57.045C79.9539 56.995 79.3889 56.765 79.0189 56.355C78.6589 55.935 78.4789 55.3 78.4789 54.45V50.46H77.3389C77.2189 50.46 77.1239 50.43 77.0539 50.37C76.9839 50.3 76.9489 50.21 76.9489 50.1C76.9489 49.99 76.9839 49.9 77.0539 49.83C77.1239 49.76 77.2189 49.725 77.3389 49.725H78.4789V47.865C78.4789 47.715 78.5189 47.6 78.5989 47.52C78.6789 47.44 78.7889 47.4 78.9289 47.4C79.0689 47.4 79.1789 47.44 79.2589 47.52C79.3489 47.6 79.3939 47.715 79.3939 47.865V49.725H81.2089C81.3389 49.725 81.4389 49.76 81.5089 49.83C81.5789 49.9 81.6139 49.99 81.6139 50.1C81.6139 50.21 81.5789 50.3 81.5089 50.37C81.4389 50.43 81.3389 50.46 81.2089 50.46H79.3939V54.495C79.3939 55.115 79.5139 55.56 79.7539 55.83C79.9939 56.09 80.3689 56.24 80.8789 56.28L81.2839 56.31ZM86.4162 49.575C86.6062 49.565 86.7412 49.59 86.8212 49.65C86.9012 49.71 86.9412 49.81 86.9412 49.95C86.9412 50.2 86.7912 50.34 86.4912 50.37L86.0412 50.415C85.3312 50.485 84.8012 50.74 84.4512 51.18C84.1112 51.62 83.9412 52.135 83.9412 52.725V56.61C83.9412 56.76 83.9012 56.875 83.8212 56.955C83.7412 57.035 83.6312 57.075 83.4912 57.075C83.3512 57.075 83.2362 57.035 83.1462 56.955C83.0662 56.875 83.0262 56.76 83.0262 56.61V50.04C83.0262 49.89 83.0662 49.775 83.1462 49.695C83.2362 49.615 83.3512 49.575 83.4912 49.575C83.6212 49.575 83.7262 49.615 83.8062 49.695C83.8862 49.775 83.9262 49.885 83.9262 50.025V51C84.3362 50.14 85.0962 49.67 86.2062 49.59L86.4162 49.575ZM90.8577 57.105C90.1877 57.105 89.5977 56.95 89.0877 56.64C88.5877 56.33 88.1977 55.89 87.9177 55.32C87.6377 54.75 87.4977 54.085 87.4977 53.325C87.4977 52.565 87.6377 51.9 87.9177 51.33C88.1977 50.76 88.5877 50.32 89.0877 50.01C89.5977 49.7 90.1877 49.545 90.8577 49.545C91.5177 49.545 92.1027 49.7 92.6127 50.01C93.1227 50.32 93.5127 50.76 93.7827 51.33C94.0627 51.9 94.2027 52.565 94.2027 53.325C94.2027 54.085 94.0627 54.75 93.7827 55.32C93.5127 55.89 93.1227 56.33 92.6127 56.64C92.1027 56.95 91.5177 57.105 90.8577 57.105ZM90.8427 56.295C91.6127 56.295 92.2077 56.04 92.6277 55.53C93.0477 55.02 93.2577 54.285 93.2577 53.325C93.2577 52.385 93.0427 51.655 92.6127 51.135C92.1927 50.605 91.6077 50.34 90.8577 50.34C90.0977 50.34 89.5077 50.605 89.0877 51.135C88.6677 51.655 88.4577 52.385 88.4577 53.325C88.4577 54.285 88.6627 55.02 89.0727 55.53C89.4827 56.04 90.0727 56.295 90.8427 56.295ZM98.4915 57.105C98.0715 57.105 97.6565 57.05 97.2465 56.94C96.8465 56.82 96.4915 56.66 96.1815 56.46C95.9915 56.33 95.8565 56.22 95.7765 56.13C95.7065 56.03 95.6715 55.92 95.6715 55.8C95.6715 55.7 95.7015 55.615 95.7615 55.545C95.8315 55.475 95.9115 55.44 96.0015 55.44C96.0915 55.44 96.2465 55.515 96.4665 55.665C96.7565 55.855 97.0515 56.01 97.3515 56.13C97.6615 56.25 98.0465 56.31 98.5065 56.31C99.0965 56.31 99.5565 56.205 99.8865 55.995C100.217 55.775 100.382 55.465 100.382 55.065C100.382 54.825 100.322 54.63 100.202 54.48C100.082 54.32 99.8815 54.185 99.6015 54.075C99.3215 53.955 98.9215 53.84 98.4015 53.73C97.5115 53.53 96.8765 53.275 96.4965 52.965C96.1265 52.645 95.9415 52.22 95.9415 51.69C95.9415 51.05 96.1915 50.535 96.6915 50.145C97.1915 49.745 97.8415 49.545 98.6415 49.545C99.0315 49.545 99.4015 49.595 99.7515 49.695C100.112 49.795 100.422 49.94 100.682 50.13C101.032 50.37 101.207 50.605 101.207 50.835C101.207 50.935 101.172 51.025 101.102 51.105C101.042 51.175 100.967 51.21 100.877 51.21C100.777 51.21 100.622 51.13 100.412 50.97C100.142 50.78 99.8715 50.63 99.6015 50.52C99.3415 50.4 99.0065 50.34 98.5965 50.34C98.0765 50.34 97.6615 50.46 97.3515 50.7C97.0415 50.93 96.8865 51.245 96.8865 51.645C96.8865 51.875 96.9365 52.065 97.0365 52.215C97.1465 52.365 97.3265 52.5 97.5765 52.62C97.8365 52.73 98.2065 52.84 98.6865 52.95C99.3765 53.11 99.9065 53.28 100.277 53.46C100.647 53.64 100.912 53.855 101.072 54.105C101.232 54.355 101.312 54.675 101.312 55.065C101.312 55.675 101.052 56.17 100.532 56.55C100.022 56.92 99.3415 57.105 98.4915 57.105Z" fill="#219653"/>
</svg>
