<svg width="103" height="61" viewBox="0 0 103 61" fill="none" xmlns="http://www.w3.org/2000/svg">
<path fill-rule="evenodd" clip-rule="evenodd" d="M62.9356 4.21668C63.7464 4.21668 64.4038 4.93368 64.4038 5.81746V31.621C64.4038 32.5051 63.7646 33.2218 62.9457 33.2218H33.8619C33.0566 33.2218 32.4038 32.5048 32.4038 31.621V5.81746C32.4038 4.93338 33.0487 4.21668 33.872 4.21668H38.222V5.82808L33.8584 5.90361V31.6104H62.9493V5.82808H58.5856V4.21668H62.9356ZM52.7674 4.21668H51.3129V5.82808H52.7674V4.21668ZM45.4947 4.21668H44.0402V5.82808H45.4947V4.21668ZM39.9944 12.2737C39.8188 12.2737 39.6765 12.4166 39.6765 12.5959V13.5628C39.6765 13.7408 39.817 13.885 39.9944 13.885H56.8133C56.9888 13.885 57.1311 13.7421 57.1311 13.5628V12.5959C57.1311 12.4179 56.9906 12.2737 56.8133 12.2737H39.9944ZM39.9944 18.7192C39.8188 18.7192 39.6765 18.8622 39.6765 19.0414V20.0084C39.6765 20.1864 39.817 20.3306 39.9944 20.3306H56.8133C56.9888 20.3306 57.1311 20.1876 57.1311 20.0084V19.0414C57.1311 18.8635 56.9906 18.7192 56.8133 18.7192H39.9944ZM39.9944 25.1648C39.8188 25.1648 39.6765 25.3078 39.6765 25.487V26.454C39.6765 26.632 39.817 26.7762 39.9944 26.7762H56.8133C56.9888 26.7762 57.1311 26.6332 57.1311 26.454V25.487C57.1311 25.309 56.9906 25.1648 56.8133 25.1648H39.9944ZM41.1311 7.43947C41.9344 7.43947 42.5856 5.99658 42.5856 4.21668C42.5856 2.43679 41.9344 0.993896 41.1311 0.993896C40.3278 0.993896 39.6765 2.43679 39.6765 4.21668C39.6765 5.99658 40.3278 7.43947 41.1311 7.43947ZM48.4038 7.43947C49.2071 7.43947 49.8584 5.99658 49.8584 4.21668C49.8584 2.43679 49.2071 0.993896 48.4038 0.993896C47.6005 0.993896 46.9493 2.43679 46.9493 4.21668C46.9493 5.99658 47.6005 7.43947 48.4038 7.43947ZM55.6765 7.43947C56.4799 7.43947 57.1311 5.99658 57.1311 4.21668C57.1311 2.43679 56.4799 0.993896 55.6765 0.993896C54.8732 0.993896 54.222 2.43679 54.222 4.21668C54.222 5.99658 54.8732 7.43947 55.6765 7.43947Z" fill="#A5A5A5"/>
<path d="M10.755 47.35C10.905 47.35 11.02 47.395 11.1 47.485C11.19 47.575 11.235 47.69 11.235 47.83V57.595C11.235 57.735 11.195 57.85 11.115 57.94C11.035 58.03 10.925 58.075 10.785 58.075C10.645 58.075 10.54 58.035 10.47 57.955C10.4 57.865 10.365 57.745 10.365 57.595V49.27L6.81 56.14C6.69 56.37 6.525 56.485 6.315 56.485C6.105 56.485 5.94 56.37 5.82 56.14L2.235 49.33V57.595C2.235 57.745 2.2 57.865 2.13 57.955C2.06 58.035 1.955 58.075 1.815 58.075C1.665 58.075 1.55 58.035 1.47 57.955C1.4 57.865 1.365 57.745 1.365 57.595V47.83C1.365 47.69 1.405 47.575 1.485 47.485C1.575 47.395 1.695 47.35 1.845 47.35C2.025 47.35 2.175 47.465 2.295 47.695L6.33 55.435L10.305 47.695C10.425 47.465 10.575 47.35 10.755 47.35ZM19.3777 56.44C19.4677 56.44 19.5427 56.48 19.6027 56.56C19.6727 56.63 19.7077 56.715 19.7077 56.815C19.7077 57.035 19.5377 57.25 19.1977 57.46C18.4777 57.89 17.7177 58.105 16.9177 58.105C15.8077 58.105 14.9327 57.77 14.2927 57.1C13.6527 56.43 13.3327 55.51 13.3327 54.34C13.3327 53.59 13.4727 52.93 13.7527 52.36C14.0427 51.78 14.4427 51.335 14.9527 51.025C15.4727 50.705 16.0677 50.545 16.7377 50.545C17.6777 50.545 18.4177 50.85 18.9577 51.46C19.5077 52.06 19.7827 52.89 19.7827 53.95C19.7827 54.13 19.7427 54.265 19.6627 54.355C19.5827 54.435 19.4527 54.475 19.2727 54.475H14.2777C14.3077 55.395 14.5477 56.095 14.9977 56.575C15.4477 57.055 16.0827 57.295 16.9027 57.295C17.3327 57.295 17.6927 57.24 17.9827 57.13C18.2727 57.01 18.5827 56.855 18.9127 56.665C19.1327 56.515 19.2877 56.44 19.3777 56.44ZM16.7377 51.295C16.0377 51.295 15.4777 51.515 15.0577 51.955C14.6377 52.395 14.3877 53.01 14.3077 53.8H18.9427C18.9227 53 18.7227 52.385 18.3427 51.955C17.9627 51.515 17.4277 51.295 16.7377 51.295ZM27.1232 50.575C27.2632 50.575 27.3732 50.62 27.4532 50.71C27.5432 50.79 27.5882 50.9 27.5882 51.04V57.61C27.5882 57.75 27.5432 57.865 27.4532 57.955C27.3732 58.035 27.2632 58.075 27.1232 58.075C26.9932 58.075 26.8882 58.035 26.8082 57.955C26.7282 57.865 26.6882 57.75 26.6882 57.61V56.695C26.4582 57.155 26.1282 57.505 25.6982 57.745C25.2782 57.985 24.7982 58.105 24.2582 58.105C23.3982 58.105 22.7482 57.87 22.3082 57.4C21.8782 56.92 21.6632 56.215 21.6632 55.285V51.04C21.6632 50.9 21.7032 50.79 21.7832 50.71C21.8732 50.62 21.9882 50.575 22.1282 50.575C22.2682 50.575 22.3782 50.62 22.4582 50.71C22.5382 50.79 22.5782 50.9 22.5782 51.04V55.225C22.5782 55.935 22.7182 56.46 22.9982 56.8C23.2882 57.13 23.7382 57.295 24.3482 57.295C25.0482 57.295 25.6082 57.075 26.0282 56.635C26.4582 56.185 26.6732 55.59 26.6732 54.85V51.04C26.6732 50.9 26.7132 50.79 26.7932 50.71C26.8732 50.62 26.9832 50.575 27.1232 50.575ZM32.3392 58.105C31.9192 58.105 31.5042 58.05 31.0942 57.94C30.6942 57.82 30.3392 57.66 30.0292 57.46C29.8392 57.33 29.7042 57.22 29.6242 57.13C29.5542 57.03 29.5192 56.92 29.5192 56.8C29.5192 56.7 29.5492 56.615 29.6092 56.545C29.6792 56.475 29.7592 56.44 29.8492 56.44C29.9392 56.44 30.0942 56.515 30.3142 56.665C30.6042 56.855 30.8992 57.01 31.1992 57.13C31.5092 57.25 31.8942 57.31 32.3542 57.31C32.9442 57.31 33.4042 57.205 33.7342 56.995C34.0642 56.775 34.2292 56.465 34.2292 56.065C34.2292 55.825 34.1692 55.63 34.0492 55.48C33.9292 55.32 33.7292 55.185 33.4492 55.075C33.1692 54.955 32.7692 54.84 32.2492 54.73C31.3592 54.53 30.7242 54.275 30.3442 53.965C29.9742 53.645 29.7892 53.22 29.7892 52.69C29.7892 52.05 30.0392 51.535 30.5392 51.145C31.0392 50.745 31.6892 50.545 32.4892 50.545C32.8792 50.545 33.2492 50.595 33.5992 50.695C33.9592 50.795 34.2692 50.94 34.5292 51.13C34.8792 51.37 35.0542 51.605 35.0542 51.835C35.0542 51.935 35.0192 52.025 34.9492 52.105C34.8892 52.175 34.8142 52.21 34.7242 52.21C34.6242 52.21 34.4692 52.13 34.2592 51.97C33.9892 51.78 33.7192 51.63 33.4492 51.52C33.1892 51.4 32.8542 51.34 32.4442 51.34C31.9242 51.34 31.5092 51.46 31.1992 51.7C30.8892 51.93 30.7342 52.245 30.7342 52.645C30.7342 52.875 30.7842 53.065 30.8842 53.215C30.9942 53.365 31.1742 53.5 31.4242 53.62C31.6842 53.73 32.0542 53.84 32.5342 53.95C33.2242 54.11 33.7542 54.28 34.1242 54.46C34.4942 54.64 34.7592 54.855 34.9192 55.105C35.0792 55.355 35.1592 55.675 35.1592 56.065C35.1592 56.675 34.8992 57.17 34.3792 57.55C33.8692 57.92 33.1892 58.105 32.3392 58.105ZM48.9966 57.445C49.0566 57.535 49.0866 57.62 49.0866 57.7C49.0866 57.81 49.0416 57.905 48.9516 57.985C48.8716 58.055 48.7766 58.09 48.6666 58.09C48.4966 58.09 48.3616 58.01 48.2616 57.85L46.2366 54.61C45.9466 54.15 45.6466 53.835 45.3366 53.665C45.0366 53.495 44.6166 53.41 44.0766 53.41H42.0216V57.595C42.0216 57.745 41.9766 57.865 41.8866 57.955C41.8066 58.035 41.6966 58.075 41.5566 58.075C41.4166 58.075 41.3016 58.035 41.2116 57.955C41.1316 57.865 41.0916 57.745 41.0916 57.595V47.89C41.0916 47.76 41.1366 47.65 41.2266 47.56C41.3266 47.47 41.4466 47.425 41.5866 47.425H45.3216C46.4316 47.425 47.2866 47.68 47.8866 48.19C48.4866 48.69 48.7866 49.425 48.7866 50.395C48.7866 51.245 48.5316 51.92 48.0216 52.42C47.5116 52.92 46.7916 53.21 45.8616 53.29C46.1016 53.37 46.3216 53.505 46.5216 53.695C46.7216 53.875 46.9266 54.13 47.1366 54.46L48.9966 57.445ZM45.2616 52.615C47.0016 52.615 47.8716 51.87 47.8716 50.38C47.8716 49.65 47.6566 49.11 47.2266 48.76C46.7966 48.4 46.1416 48.22 45.2616 48.22H42.0066V52.615H45.2616ZM56.7312 56.44C56.8212 56.44 56.8962 56.48 56.9562 56.56C57.0262 56.63 57.0612 56.715 57.0612 56.815C57.0612 57.035 56.8912 57.25 56.5512 57.46C55.8312 57.89 55.0712 58.105 54.2712 58.105C53.1612 58.105 52.2862 57.77 51.6462 57.1C51.0062 56.43 50.6862 55.51 50.6862 54.34C50.6862 53.59 50.8262 52.93 51.1062 52.36C51.3962 51.78 51.7962 51.335 52.3062 51.025C52.8262 50.705 53.4212 50.545 54.0912 50.545C55.0312 50.545 55.7712 50.85 56.3112 51.46C56.8612 52.06 57.1362 52.89 57.1362 53.95C57.1362 54.13 57.0962 54.265 57.0162 54.355C56.9362 54.435 56.8062 54.475 56.6262 54.475H51.6312C51.6612 55.395 51.9012 56.095 52.3512 56.575C52.8012 57.055 53.4362 57.295 54.2562 57.295C54.6862 57.295 55.0462 57.24 55.3362 57.13C55.6262 57.01 55.9362 56.855 56.2662 56.665C56.4862 56.515 56.6412 56.44 56.7312 56.44ZM54.0912 51.295C53.3912 51.295 52.8312 51.515 52.4112 51.955C51.9912 52.395 51.7412 53.01 51.6612 53.8H56.2962C56.2762 53 56.0762 52.385 55.6962 51.955C55.3162 51.515 54.7812 51.295 54.0912 51.295ZM64.8367 50.575C64.9767 50.575 65.0867 50.62 65.1667 50.71C65.2567 50.79 65.3017 50.9 65.3017 51.04V57.58C65.3017 58.64 65.0367 59.44 64.5067 59.98C63.9867 60.53 63.2117 60.805 62.1817 60.805C61.6417 60.805 61.1567 60.75 60.7267 60.64C60.3067 60.54 59.9117 60.38 59.5417 60.16C59.1817 59.94 59.0017 59.725 59.0017 59.515C59.0017 59.405 59.0317 59.315 59.0917 59.245C59.1617 59.175 59.2467 59.14 59.3467 59.14C59.4067 59.14 59.4867 59.165 59.5867 59.215C59.6967 59.275 59.7717 59.315 59.8117 59.335C60.1517 59.525 60.5017 59.68 60.8617 59.8C61.2217 59.93 61.6667 59.995 62.1967 59.995C62.9267 59.995 63.4767 59.8 63.8467 59.41C64.2167 59.02 64.4017 58.44 64.4017 57.67V56.245C64.1917 56.735 63.8667 57.115 63.4267 57.385C62.9967 57.645 62.4717 57.775 61.8517 57.775C61.2117 57.775 60.6417 57.625 60.1417 57.325C59.6517 57.025 59.2667 56.6 58.9867 56.05C58.7167 55.5 58.5817 54.87 58.5817 54.16C58.5817 53.45 58.7167 52.82 58.9867 52.27C59.2667 51.72 59.6517 51.295 60.1417 50.995C60.6417 50.695 61.2117 50.545 61.8517 50.545C62.4617 50.545 62.9817 50.675 63.4117 50.935C63.8417 51.185 64.1667 51.555 64.3867 52.045V51.04C64.3867 50.9 64.4267 50.79 64.5067 50.71C64.5867 50.62 64.6967 50.575 64.8367 50.575ZM61.9717 56.965C62.7317 56.965 63.3217 56.715 63.7417 56.215C64.1717 55.715 64.3867 55.03 64.3867 54.16C64.3867 53.29 64.1717 52.605 63.7417 52.105C63.3117 51.595 62.7217 51.34 61.9717 51.34C61.2117 51.34 60.6167 51.59 60.1867 52.09C59.7567 52.59 59.5417 53.28 59.5417 54.16C59.5417 55.04 59.7567 55.73 60.1867 56.23C60.6167 56.72 61.2117 56.965 61.9717 56.965ZM68.1689 58.075C68.0289 58.075 67.9139 58.035 67.8239 57.955C67.7439 57.875 67.7039 57.76 67.7039 57.61V51.04C67.7039 50.89 67.7439 50.775 67.8239 50.695C67.9139 50.615 68.0289 50.575 68.1689 50.575C68.3089 50.575 68.4189 50.615 68.4989 50.695C68.5789 50.775 68.6189 50.89 68.6189 51.04V57.61C68.6189 57.76 68.5789 57.875 68.4989 57.955C68.4189 58.035 68.3089 58.075 68.1689 58.075ZM68.1689 48.88C67.9689 48.88 67.8039 48.82 67.6739 48.7C67.5539 48.58 67.4939 48.425 67.4939 48.235C67.4939 48.035 67.5539 47.875 67.6739 47.755C67.8039 47.635 67.9689 47.575 68.1689 47.575C68.3689 47.575 68.5289 47.635 68.6489 47.755C68.7789 47.875 68.8439 48.035 68.8439 48.235C68.8439 48.425 68.7789 48.58 68.6489 48.7C68.5289 48.82 68.3689 48.88 68.1689 48.88ZM73.3841 58.105C72.9641 58.105 72.5491 58.05 72.1391 57.94C71.7391 57.82 71.3841 57.66 71.0741 57.46C70.8841 57.33 70.7491 57.22 70.6691 57.13C70.5991 57.03 70.5641 56.92 70.5641 56.8C70.5641 56.7 70.5941 56.615 70.6541 56.545C70.7241 56.475 70.8041 56.44 70.8941 56.44C70.9841 56.44 71.1391 56.515 71.3591 56.665C71.6491 56.855 71.9441 57.01 72.2441 57.13C72.5541 57.25 72.9391 57.31 73.3991 57.31C73.9891 57.31 74.4491 57.205 74.7791 56.995C75.1091 56.775 75.2741 56.465 75.2741 56.065C75.2741 55.825 75.2141 55.63 75.0941 55.48C74.9741 55.32 74.7741 55.185 74.4941 55.075C74.2141 54.955 73.8141 54.84 73.2941 54.73C72.4041 54.53 71.7691 54.275 71.3891 53.965C71.0191 53.645 70.8341 53.22 70.8341 52.69C70.8341 52.05 71.0841 51.535 71.5841 51.145C72.0841 50.745 72.7341 50.545 73.5341 50.545C73.9241 50.545 74.2941 50.595 74.6441 50.695C75.0041 50.795 75.3141 50.94 75.5741 51.13C75.9241 51.37 76.0991 51.605 76.0991 51.835C76.0991 51.935 76.0641 52.025 75.9941 52.105C75.9341 52.175 75.8591 52.21 75.7691 52.21C75.6691 52.21 75.5141 52.13 75.3041 51.97C75.0341 51.78 74.7641 51.63 74.4941 51.52C74.2341 51.4 73.8991 51.34 73.4891 51.34C72.9691 51.34 72.5541 51.46 72.2441 51.7C71.9341 51.93 71.7791 52.245 71.7791 52.645C71.7791 52.875 71.8291 53.065 71.9291 53.215C72.0391 53.365 72.2191 53.5 72.4691 53.62C72.7291 53.73 73.0991 53.84 73.5791 53.95C74.2691 54.11 74.7991 54.28 75.1691 54.46C75.5391 54.64 75.8041 54.855 75.9641 55.105C76.1241 55.355 76.2041 55.675 76.2041 56.065C76.2041 56.675 75.9441 57.17 75.4241 57.55C74.9141 57.92 74.2341 58.105 73.3841 58.105ZM81.2839 57.31C81.5639 57.34 81.7039 57.47 81.7039 57.7C81.7039 57.82 81.6589 57.915 81.5689 57.985C81.4789 58.055 81.3339 58.085 81.1339 58.075L80.7139 58.045C79.9539 57.995 79.3889 57.765 79.0189 57.355C78.6589 56.935 78.4789 56.3 78.4789 55.45V51.46H77.3389C77.2189 51.46 77.1239 51.43 77.0539 51.37C76.9839 51.3 76.9489 51.21 76.9489 51.1C76.9489 50.99 76.9839 50.9 77.0539 50.83C77.1239 50.76 77.2189 50.725 77.3389 50.725H78.4789V48.865C78.4789 48.715 78.5189 48.6 78.5989 48.52C78.6789 48.44 78.7889 48.4 78.9289 48.4C79.0689 48.4 79.1789 48.44 79.2589 48.52C79.3489 48.6 79.3939 48.715 79.3939 48.865V50.725H81.2089C81.3389 50.725 81.4389 50.76 81.5089 50.83C81.5789 50.9 81.6139 50.99 81.6139 51.1C81.6139 51.21 81.5789 51.3 81.5089 51.37C81.4389 51.43 81.3389 51.46 81.2089 51.46H79.3939V55.495C79.3939 56.115 79.5139 56.56 79.7539 56.83C79.9939 57.09 80.3689 57.24 80.8789 57.28L81.2839 57.31ZM86.4162 50.575C86.6062 50.565 86.7412 50.59 86.8212 50.65C86.9012 50.71 86.9412 50.81 86.9412 50.95C86.9412 51.2 86.7912 51.34 86.4912 51.37L86.0412 51.415C85.3312 51.485 84.8012 51.74 84.4512 52.18C84.1112 52.62 83.9412 53.135 83.9412 53.725V57.61C83.9412 57.76 83.9012 57.875 83.8212 57.955C83.7412 58.035 83.6312 58.075 83.4912 58.075C83.3512 58.075 83.2362 58.035 83.1462 57.955C83.0662 57.875 83.0262 57.76 83.0262 57.61V51.04C83.0262 50.89 83.0662 50.775 83.1462 50.695C83.2362 50.615 83.3512 50.575 83.4912 50.575C83.6212 50.575 83.7262 50.615 83.8062 50.695C83.8862 50.775 83.9262 50.885 83.9262 51.025V52C84.3362 51.14 85.0962 50.67 86.2062 50.59L86.4162 50.575ZM90.8577 58.105C90.1877 58.105 89.5977 57.95 89.0877 57.64C88.5877 57.33 88.1977 56.89 87.9177 56.32C87.6377 55.75 87.4977 55.085 87.4977 54.325C87.4977 53.565 87.6377 52.9 87.9177 52.33C88.1977 51.76 88.5877 51.32 89.0877 51.01C89.5977 50.7 90.1877 50.545 90.8577 50.545C91.5177 50.545 92.1027 50.7 92.6127 51.01C93.1227 51.32 93.5127 51.76 93.7827 52.33C94.0627 52.9 94.2027 53.565 94.2027 54.325C94.2027 55.085 94.0627 55.75 93.7827 56.32C93.5127 56.89 93.1227 57.33 92.6127 57.64C92.1027 57.95 91.5177 58.105 90.8577 58.105ZM90.8427 57.295C91.6127 57.295 92.2077 57.04 92.6277 56.53C93.0477 56.02 93.2577 55.285 93.2577 54.325C93.2577 53.385 93.0427 52.655 92.6127 52.135C92.1927 51.605 91.6077 51.34 90.8577 51.34C90.0977 51.34 89.5077 51.605 89.0877 52.135C88.6677 52.655 88.4577 53.385 88.4577 54.325C88.4577 55.285 88.6627 56.02 89.0727 56.53C89.4827 57.04 90.0727 57.295 90.8427 57.295ZM98.4915 58.105C98.0715 58.105 97.6565 58.05 97.2465 57.94C96.8465 57.82 96.4915 57.66 96.1815 57.46C95.9915 57.33 95.8565 57.22 95.7765 57.13C95.7065 57.03 95.6715 56.92 95.6715 56.8C95.6715 56.7 95.7015 56.615 95.7615 56.545C95.8315 56.475 95.9115 56.44 96.0015 56.44C96.0915 56.44 96.2465 56.515 96.4665 56.665C96.7565 56.855 97.0515 57.01 97.3515 57.13C97.6615 57.25 98.0465 57.31 98.5065 57.31C99.0965 57.31 99.5565 57.205 99.8865 56.995C100.217 56.775 100.382 56.465 100.382 56.065C100.382 55.825 100.322 55.63 100.202 55.48C100.082 55.32 99.8815 55.185 99.6015 55.075C99.3215 54.955 98.9215 54.84 98.4015 54.73C97.5115 54.53 96.8765 54.275 96.4965 53.965C96.1265 53.645 95.9415 53.22 95.9415 52.69C95.9415 52.05 96.1915 51.535 96.6915 51.145C97.1915 50.745 97.8415 50.545 98.6415 50.545C99.0315 50.545 99.4015 50.595 99.7515 50.695C100.112 50.795 100.422 50.94 100.682 51.13C101.032 51.37 101.207 51.605 101.207 51.835C101.207 51.935 101.172 52.025 101.102 52.105C101.042 52.175 100.967 52.21 100.877 52.21C100.777 52.21 100.622 52.13 100.412 51.97C100.142 51.78 99.8715 51.63 99.6015 51.52C99.3415 51.4 99.0065 51.34 98.5965 51.34C98.0765 51.34 97.6615 51.46 97.3515 51.7C97.0415 51.93 96.8865 52.245 96.8865 52.645C96.8865 52.875 96.9365 53.065 97.0365 53.215C97.1465 53.365 97.3265 53.5 97.5765 53.62C97.8365 53.73 98.2065 53.84 98.6865 53.95C99.3765 54.11 99.9065 54.28 100.277 54.46C100.647 54.64 100.912 54.855 101.072 55.105C101.232 55.355 101.312 55.675 101.312 56.065C101.312 56.675 101.052 57.17 100.532 57.55C100.022 57.92 99.3415 58.105 98.4915 58.105Z" fill="#A5A5A5"/>
</svg>
