<svg width="152" height="25" viewBox="0 0 152 25" fill="none" xmlns="http://www.w3.org/2000/svg">
<path fill-rule="evenodd" clip-rule="evenodd" d="M23.853 2.5C24.4864 2.5 25 3.0562 25 3.74176V23.7582C25 24.444 24.5006 25 23.8609 25H1.13914C0.509996 25 0 24.4438 0 23.7582V3.74176C0 3.05596 0.503845 2.5 1.14704 2.5H4.54545V3.75L1.13636 3.80859V23.75H23.8636V3.75H20.4545V2.5H23.853ZM15.9091 2.5H14.7727V3.75H15.9091V2.5ZM10.2273 2.5H9.09091V3.75H10.2273V2.5ZM5.93012 8.75C5.79297 8.75 5.68182 8.86092 5.68182 8.99994V9.75006C5.68182 9.8881 5.79156 10 5.93012 10H19.0699C19.207 10 19.3182 9.88908 19.3182 9.75006V8.99994C19.3182 8.8619 19.2084 8.75 19.0699 8.75H5.93012ZM5.93012 13.75C5.79297 13.75 5.68182 13.8609 5.68182 13.9999V14.7501C5.68182 14.8881 5.79156 15 5.93012 15H19.0699C19.207 15 19.3182 14.8891 19.3182 14.7501V13.9999C19.3182 13.8619 19.2084 13.75 19.0699 13.75H5.93012ZM5.93012 18.75C5.79297 18.75 5.68182 18.8609 5.68182 18.9999V19.7501C5.68182 19.8881 5.79156 20 5.93012 20H19.0699C19.207 20 19.3182 19.8891 19.3182 19.7501V18.9999C19.3182 18.8619 19.2084 18.75 19.0699 18.75H5.93012ZM6.81818 5C7.44578 5 7.95455 3.88071 7.95455 2.5C7.95455 1.11929 7.44578 0 6.81818 0C6.19059 0 5.68182 1.11929 5.68182 2.5C5.68182 3.88071 6.19059 5 6.81818 5ZM12.5 5C13.1276 5 13.6364 3.88071 13.6364 2.5C13.6364 1.11929 13.1276 0 12.5 0C11.8724 0 11.3636 1.11929 11.3636 2.5C11.3636 3.88071 11.8724 5 12.5 5ZM18.1818 5C18.8094 5 19.3182 3.88071 19.3182 2.5C19.3182 1.11929 18.8094 0 18.1818 0C17.5542 0 17.0455 1.11929 17.0455 2.5C17.0455 3.88071 17.5542 5 18.1818 5Z" fill="#303030"/>
<path d="M56.755 7.35C56.905 7.35 57.02 7.395 57.1 7.485C57.19 7.575 57.235 7.69 57.235 7.83V17.595C57.235 17.735 57.195 17.85 57.115 17.94C57.035 18.03 56.925 18.075 56.785 18.075C56.645 18.075 56.54 18.035 56.47 17.955C56.4 17.865 56.365 17.745 56.365 17.595V9.27L52.81 16.14C52.69 16.37 52.525 16.485 52.315 16.485C52.105 16.485 51.94 16.37 51.82 16.14L48.235 9.33V17.595C48.235 17.745 48.2 17.865 48.13 17.955C48.06 18.035 47.955 18.075 47.815 18.075C47.665 18.075 47.55 18.035 47.47 17.955C47.4 17.865 47.365 17.745 47.365 17.595V7.83C47.365 7.69 47.405 7.575 47.485 7.485C47.575 7.395 47.695 7.35 47.845 7.35C48.025 7.35 48.175 7.465 48.295 7.695L52.33 15.435L56.305 7.695C56.425 7.465 56.575 7.35 56.755 7.35ZM65.3777 16.44C65.4677 16.44 65.5427 16.48 65.6027 16.56C65.6727 16.63 65.7077 16.715 65.7077 16.815C65.7077 17.035 65.5377 17.25 65.1977 17.46C64.4777 17.89 63.7177 18.105 62.9177 18.105C61.8077 18.105 60.9327 17.77 60.2927 17.1C59.6527 16.43 59.3327 15.51 59.3327 14.34C59.3327 13.59 59.4727 12.93 59.7527 12.36C60.0427 11.78 60.4427 11.335 60.9527 11.025C61.4727 10.705 62.0677 10.545 62.7377 10.545C63.6777 10.545 64.4177 10.85 64.9577 11.46C65.5077 12.06 65.7827 12.89 65.7827 13.95C65.7827 14.13 65.7427 14.265 65.6627 14.355C65.5827 14.435 65.4527 14.475 65.2727 14.475H60.2777C60.3077 15.395 60.5477 16.095 60.9977 16.575C61.4477 17.055 62.0827 17.295 62.9027 17.295C63.3327 17.295 63.6927 17.24 63.9827 17.13C64.2727 17.01 64.5827 16.855 64.9127 16.665C65.1327 16.515 65.2877 16.44 65.3777 16.44ZM62.7377 11.295C62.0377 11.295 61.4777 11.515 61.0577 11.955C60.6377 12.395 60.3877 13.01 60.3077 13.8H64.9427C64.9227 13 64.7227 12.385 64.3427 11.955C63.9627 11.515 63.4277 11.295 62.7377 11.295ZM73.1232 10.575C73.2632 10.575 73.3732 10.62 73.4532 10.71C73.5432 10.79 73.5882 10.9 73.5882 11.04V17.61C73.5882 17.75 73.5432 17.865 73.4532 17.955C73.3732 18.035 73.2632 18.075 73.1232 18.075C72.9932 18.075 72.8882 18.035 72.8082 17.955C72.7282 17.865 72.6882 17.75 72.6882 17.61V16.695C72.4582 17.155 72.1282 17.505 71.6982 17.745C71.2782 17.985 70.7982 18.105 70.2582 18.105C69.3982 18.105 68.7482 17.87 68.3082 17.4C67.8782 16.92 67.6632 16.215 67.6632 15.285V11.04C67.6632 10.9 67.7032 10.79 67.7832 10.71C67.8732 10.62 67.9882 10.575 68.1282 10.575C68.2682 10.575 68.3782 10.62 68.4582 10.71C68.5382 10.79 68.5782 10.9 68.5782 11.04V15.225C68.5782 15.935 68.7182 16.46 68.9982 16.8C69.2882 17.13 69.7382 17.295 70.3482 17.295C71.0482 17.295 71.6082 17.075 72.0282 16.635C72.4582 16.185 72.6732 15.59 72.6732 14.85V11.04C72.6732 10.9 72.7132 10.79 72.7932 10.71C72.8732 10.62 72.9832 10.575 73.1232 10.575ZM78.3392 18.105C77.9192 18.105 77.5042 18.05 77.0942 17.94C76.6942 17.82 76.3392 17.66 76.0292 17.46C75.8392 17.33 75.7042 17.22 75.6242 17.13C75.5542 17.03 75.5192 16.92 75.5192 16.8C75.5192 16.7 75.5492 16.615 75.6092 16.545C75.6792 16.475 75.7592 16.44 75.8492 16.44C75.9392 16.44 76.0942 16.515 76.3142 16.665C76.6042 16.855 76.8992 17.01 77.1992 17.13C77.5092 17.25 77.8942 17.31 78.3542 17.31C78.9442 17.31 79.4042 17.205 79.7342 16.995C80.0642 16.775 80.2292 16.465 80.2292 16.065C80.2292 15.825 80.1692 15.63 80.0492 15.48C79.9292 15.32 79.7292 15.185 79.4492 15.075C79.1692 14.955 78.7692 14.84 78.2492 14.73C77.3592 14.53 76.7242 14.275 76.3442 13.965C75.9742 13.645 75.7892 13.22 75.7892 12.69C75.7892 12.05 76.0392 11.535 76.5392 11.145C77.0392 10.745 77.6892 10.545 78.4892 10.545C78.8792 10.545 79.2492 10.595 79.5992 10.695C79.9592 10.795 80.2692 10.94 80.5292 11.13C80.8792 11.37 81.0542 11.605 81.0542 11.835C81.0542 11.935 81.0192 12.025 80.9492 12.105C80.8892 12.175 80.8142 12.21 80.7242 12.21C80.6242 12.21 80.4692 12.13 80.2592 11.97C79.9892 11.78 79.7192 11.63 79.4492 11.52C79.1892 11.4 78.8542 11.34 78.4442 11.34C77.9242 11.34 77.5092 11.46 77.1992 11.7C76.8892 11.93 76.7342 12.245 76.7342 12.645C76.7342 12.875 76.7842 13.065 76.8842 13.215C76.9942 13.365 77.1742 13.5 77.4242 13.62C77.6842 13.73 78.0542 13.84 78.5342 13.95C79.2242 14.11 79.7542 14.28 80.1242 14.46C80.4942 14.64 80.7592 14.855 80.9192 15.105C81.0792 15.355 81.1592 15.675 81.1592 16.065C81.1592 16.675 80.8992 17.17 80.3792 17.55C79.8692 17.92 79.1892 18.105 78.3392 18.105ZM94.9966 17.445C95.0566 17.535 95.0866 17.62 95.0866 17.7C95.0866 17.81 95.0416 17.905 94.9516 17.985C94.8716 18.055 94.7766 18.09 94.6666 18.09C94.4966 18.09 94.3616 18.01 94.2616 17.85L92.2366 14.61C91.9466 14.15 91.6466 13.835 91.3366 13.665C91.0366 13.495 90.6166 13.41 90.0766 13.41H88.0216V17.595C88.0216 17.745 87.9766 17.865 87.8866 17.955C87.8066 18.035 87.6966 18.075 87.5566 18.075C87.4166 18.075 87.3016 18.035 87.2116 17.955C87.1316 17.865 87.0916 17.745 87.0916 17.595V7.89C87.0916 7.76 87.1366 7.65 87.2266 7.56C87.3266 7.47 87.4466 7.425 87.5866 7.425H91.3216C92.4316 7.425 93.2866 7.68 93.8866 8.19C94.4866 8.69 94.7866 9.425 94.7866 10.395C94.7866 11.245 94.5316 11.92 94.0216 12.42C93.5116 12.92 92.7916 13.21 91.8616 13.29C92.1016 13.37 92.3216 13.505 92.5216 13.695C92.7216 13.875 92.9266 14.13 93.1366 14.46L94.9966 17.445ZM91.2616 12.615C93.0016 12.615 93.8716 11.87 93.8716 10.38C93.8716 9.65 93.6566 9.11 93.2266 8.76C92.7966 8.4 92.1416 8.22 91.2616 8.22H88.0066V12.615H91.2616ZM102.731 16.44C102.821 16.44 102.896 16.48 102.956 16.56C103.026 16.63 103.061 16.715 103.061 16.815C103.061 17.035 102.891 17.25 102.551 17.46C101.831 17.89 101.071 18.105 100.271 18.105C99.1612 18.105 98.2862 17.77 97.6462 17.1C97.0062 16.43 96.6862 15.51 96.6862 14.34C96.6862 13.59 96.8262 12.93 97.1062 12.36C97.3962 11.78 97.7962 11.335 98.3062 11.025C98.8262 10.705 99.4212 10.545 100.091 10.545C101.031 10.545 101.771 10.85 102.311 11.46C102.861 12.06 103.136 12.89 103.136 13.95C103.136 14.13 103.096 14.265 103.016 14.355C102.936 14.435 102.806 14.475 102.626 14.475H97.6312C97.6612 15.395 97.9012 16.095 98.3512 16.575C98.8012 17.055 99.4362 17.295 100.256 17.295C100.686 17.295 101.046 17.24 101.336 17.13C101.626 17.01 101.936 16.855 102.266 16.665C102.486 16.515 102.641 16.44 102.731 16.44ZM100.091 11.295C99.3912 11.295 98.8312 11.515 98.4112 11.955C97.9912 12.395 97.7412 13.01 97.6612 13.8H102.296C102.276 13 102.076 12.385 101.696 11.955C101.316 11.515 100.781 11.295 100.091 11.295ZM110.837 10.575C110.977 10.575 111.087 10.62 111.167 10.71C111.257 10.79 111.302 10.9 111.302 11.04V17.58C111.302 18.64 111.037 19.44 110.507 19.98C109.987 20.53 109.212 20.805 108.182 20.805C107.642 20.805 107.157 20.75 106.727 20.64C106.307 20.54 105.912 20.38 105.542 20.16C105.182 19.94 105.002 19.725 105.002 19.515C105.002 19.405 105.032 19.315 105.092 19.245C105.162 19.175 105.247 19.14 105.347 19.14C105.407 19.14 105.487 19.165 105.587 19.215C105.697 19.275 105.772 19.315 105.812 19.335C106.152 19.525 106.502 19.68 106.862 19.8C107.222 19.93 107.667 19.995 108.197 19.995C108.927 19.995 109.477 19.8 109.847 19.41C110.217 19.02 110.402 18.44 110.402 17.67V16.245C110.192 16.735 109.867 17.115 109.427 17.385C108.997 17.645 108.472 17.775 107.852 17.775C107.212 17.775 106.642 17.625 106.142 17.325C105.652 17.025 105.267 16.6 104.987 16.05C104.717 15.5 104.582 14.87 104.582 14.16C104.582 13.45 104.717 12.82 104.987 12.27C105.267 11.72 105.652 11.295 106.142 10.995C106.642 10.695 107.212 10.545 107.852 10.545C108.462 10.545 108.982 10.675 109.412 10.935C109.842 11.185 110.167 11.555 110.387 12.045V11.04C110.387 10.9 110.427 10.79 110.507 10.71C110.587 10.62 110.697 10.575 110.837 10.575ZM107.972 16.965C108.732 16.965 109.322 16.715 109.742 16.215C110.172 15.715 110.387 15.03 110.387 14.16C110.387 13.29 110.172 12.605 109.742 12.105C109.312 11.595 108.722 11.34 107.972 11.34C107.212 11.34 106.617 11.59 106.187 12.09C105.757 12.59 105.542 13.28 105.542 14.16C105.542 15.04 105.757 15.73 106.187 16.23C106.617 16.72 107.212 16.965 107.972 16.965ZM114.169 18.075C114.029 18.075 113.914 18.035 113.824 17.955C113.744 17.875 113.704 17.76 113.704 17.61V11.04C113.704 10.89 113.744 10.775 113.824 10.695C113.914 10.615 114.029 10.575 114.169 10.575C114.309 10.575 114.419 10.615 114.499 10.695C114.579 10.775 114.619 10.89 114.619 11.04V17.61C114.619 17.76 114.579 17.875 114.499 17.955C114.419 18.035 114.309 18.075 114.169 18.075ZM114.169 8.88C113.969 8.88 113.804 8.82 113.674 8.7C113.554 8.58 113.494 8.425 113.494 8.235C113.494 8.035 113.554 7.875 113.674 7.755C113.804 7.635 113.969 7.575 114.169 7.575C114.369 7.575 114.529 7.635 114.649 7.755C114.779 7.875 114.844 8.035 114.844 8.235C114.844 8.425 114.779 8.58 114.649 8.7C114.529 8.82 114.369 8.88 114.169 8.88ZM119.384 18.105C118.964 18.105 118.549 18.05 118.139 17.94C117.739 17.82 117.384 17.66 117.074 17.46C116.884 17.33 116.749 17.22 116.669 17.13C116.599 17.03 116.564 16.92 116.564 16.8C116.564 16.7 116.594 16.615 116.654 16.545C116.724 16.475 116.804 16.44 116.894 16.44C116.984 16.44 117.139 16.515 117.359 16.665C117.649 16.855 117.944 17.01 118.244 17.13C118.554 17.25 118.939 17.31 119.399 17.31C119.989 17.31 120.449 17.205 120.779 16.995C121.109 16.775 121.274 16.465 121.274 16.065C121.274 15.825 121.214 15.63 121.094 15.48C120.974 15.32 120.774 15.185 120.494 15.075C120.214 14.955 119.814 14.84 119.294 14.73C118.404 14.53 117.769 14.275 117.389 13.965C117.019 13.645 116.834 13.22 116.834 12.69C116.834 12.05 117.084 11.535 117.584 11.145C118.084 10.745 118.734 10.545 119.534 10.545C119.924 10.545 120.294 10.595 120.644 10.695C121.004 10.795 121.314 10.94 121.574 11.13C121.924 11.37 122.099 11.605 122.099 11.835C122.099 11.935 122.064 12.025 121.994 12.105C121.934 12.175 121.859 12.21 121.769 12.21C121.669 12.21 121.514 12.13 121.304 11.97C121.034 11.78 120.764 11.63 120.494 11.52C120.234 11.4 119.899 11.34 119.489 11.34C118.969 11.34 118.554 11.46 118.244 11.7C117.934 11.93 117.779 12.245 117.779 12.645C117.779 12.875 117.829 13.065 117.929 13.215C118.039 13.365 118.219 13.5 118.469 13.62C118.729 13.73 119.099 13.84 119.579 13.95C120.269 14.11 120.799 14.28 121.169 14.46C121.539 14.64 121.804 14.855 121.964 15.105C122.124 15.355 122.204 15.675 122.204 16.065C122.204 16.675 121.944 17.17 121.424 17.55C120.914 17.92 120.234 18.105 119.384 18.105ZM127.284 17.31C127.564 17.34 127.704 17.47 127.704 17.7C127.704 17.82 127.659 17.915 127.569 17.985C127.479 18.055 127.334 18.085 127.134 18.075L126.714 18.045C125.954 17.995 125.389 17.765 125.019 17.355C124.659 16.935 124.479 16.3 124.479 15.45V11.46H123.339C123.219 11.46 123.124 11.43 123.054 11.37C122.984 11.3 122.949 11.21 122.949 11.1C122.949 10.99 122.984 10.9 123.054 10.83C123.124 10.76 123.219 10.725 123.339 10.725H124.479V8.865C124.479 8.715 124.519 8.6 124.599 8.52C124.679 8.44 124.789 8.4 124.929 8.4C125.069 8.4 125.179 8.44 125.259 8.52C125.349 8.6 125.394 8.715 125.394 8.865V10.725H127.209C127.339 10.725 127.439 10.76 127.509 10.83C127.579 10.9 127.614 10.99 127.614 11.1C127.614 11.21 127.579 11.3 127.509 11.37C127.439 11.43 127.339 11.46 127.209 11.46H125.394V15.495C125.394 16.115 125.514 16.56 125.754 16.83C125.994 17.09 126.369 17.24 126.879 17.28L127.284 17.31ZM132.416 10.575C132.606 10.565 132.741 10.59 132.821 10.65C132.901 10.71 132.941 10.81 132.941 10.95C132.941 11.2 132.791 11.34 132.491 11.37L132.041 11.415C131.331 11.485 130.801 11.74 130.451 12.18C130.111 12.62 129.941 13.135 129.941 13.725V17.61C129.941 17.76 129.901 17.875 129.821 17.955C129.741 18.035 129.631 18.075 129.491 18.075C129.351 18.075 129.236 18.035 129.146 17.955C129.066 17.875 129.026 17.76 129.026 17.61V11.04C129.026 10.89 129.066 10.775 129.146 10.695C129.236 10.615 129.351 10.575 129.491 10.575C129.621 10.575 129.726 10.615 129.806 10.695C129.886 10.775 129.926 10.885 129.926 11.025V12C130.336 11.14 131.096 10.67 132.206 10.59L132.416 10.575ZM136.858 18.105C136.188 18.105 135.598 17.95 135.088 17.64C134.588 17.33 134.198 16.89 133.918 16.32C133.638 15.75 133.498 15.085 133.498 14.325C133.498 13.565 133.638 12.9 133.918 12.33C134.198 11.76 134.588 11.32 135.088 11.01C135.598 10.7 136.188 10.545 136.858 10.545C137.518 10.545 138.103 10.7 138.613 11.01C139.123 11.32 139.513 11.76 139.783 12.33C140.063 12.9 140.203 13.565 140.203 14.325C140.203 15.085 140.063 15.75 139.783 16.32C139.513 16.89 139.123 17.33 138.613 17.64C138.103 17.95 137.518 18.105 136.858 18.105ZM136.843 17.295C137.613 17.295 138.208 17.04 138.628 16.53C139.048 16.02 139.258 15.285 139.258 14.325C139.258 13.385 139.043 12.655 138.613 12.135C138.193 11.605 137.608 11.34 136.858 11.34C136.098 11.34 135.508 11.605 135.088 12.135C134.668 12.655 134.458 13.385 134.458 14.325C134.458 15.285 134.663 16.02 135.073 16.53C135.483 17.04 136.073 17.295 136.843 17.295ZM144.492 18.105C144.072 18.105 143.657 18.05 143.247 17.94C142.847 17.82 142.492 17.66 142.182 17.46C141.992 17.33 141.857 17.22 141.777 17.13C141.707 17.03 141.672 16.92 141.672 16.8C141.672 16.7 141.702 16.615 141.762 16.545C141.832 16.475 141.912 16.44 142.002 16.44C142.092 16.44 142.247 16.515 142.467 16.665C142.757 16.855 143.052 17.01 143.352 17.13C143.662 17.25 144.047 17.31 144.507 17.31C145.097 17.31 145.557 17.205 145.887 16.995C146.217 16.775 146.382 16.465 146.382 16.065C146.382 15.825 146.322 15.63 146.202 15.48C146.082 15.32 145.882 15.185 145.602 15.075C145.322 14.955 144.922 14.84 144.402 14.73C143.512 14.53 142.877 14.275 142.497 13.965C142.127 13.645 141.942 13.22 141.942 12.69C141.942 12.05 142.192 11.535 142.692 11.145C143.192 10.745 143.842 10.545 144.642 10.545C145.032 10.545 145.402 10.595 145.752 10.695C146.112 10.795 146.422 10.94 146.682 11.13C147.032 11.37 147.207 11.605 147.207 11.835C147.207 11.935 147.172 12.025 147.102 12.105C147.042 12.175 146.967 12.21 146.877 12.21C146.777 12.21 146.622 12.13 146.412 11.97C146.142 11.78 145.872 11.63 145.602 11.52C145.342 11.4 145.007 11.34 144.597 11.34C144.077 11.34 143.662 11.46 143.352 11.7C143.042 11.93 142.887 12.245 142.887 12.645C142.887 12.875 142.937 13.065 143.037 13.215C143.147 13.365 143.327 13.5 143.577 13.62C143.837 13.73 144.207 13.84 144.687 13.95C145.377 14.11 145.907 14.28 146.277 14.46C146.647 14.64 146.912 14.855 147.072 15.105C147.232 15.355 147.312 15.675 147.312 16.065C147.312 16.675 147.052 17.17 146.532 17.55C146.022 17.92 145.342 18.105 144.492 18.105Z" fill="#303030"/>
</svg>
